<svg width="218" height="141" viewBox="0 0 218 141" fill="none" xmlns="http://www.w3.org/2000/svg">
<g id="BWSR-logo-international 2">
<g id="Group">
<g id="Group_2">
<path id="Vector" d="M41.7599 122.066V126.179L44.8489 122.066H48.0186L44.1361 126.785L48.3217 131.972H45.0037L41.7511 127.67V131.972H39.2441V122.066H41.7599Z" fill="#010101"/>
<path id="Vector_2" d="M53.8239 129.914H56.0366L55.8404 130.405C55.3739 131.578 54.2272 132.101 52.8909 132.208C50.5321 132.398 48.8535 130.865 48.762 128.785C48.6791 126.802 50.2204 125.13 52.226 125.014C54.1509 124.91 55.9538 126.146 56.0759 128.039L56.1086 129.046H51.1861C51.1447 129.801 51.6439 130.496 52.4222 130.555C53.013 130.603 53.5057 130.413 53.8239 129.914ZM51.2276 127.629H53.9133C53.6931 126.966 53.2332 126.613 52.5857 126.606C51.9317 126.604 51.4085 126.922 51.2276 127.629Z" fill="#010101"/>
<path id="Vector_3" d="M59.8103 121.114V131.97H57.4014V121.114H59.8103Z" fill="#010101"/>
<path id="Vector_4" d="M68.9595 128.515C69.0009 130.621 67.0672 132.184 64.9635 132.193C62.8184 132.21 60.8106 130.66 60.9087 128.416C60.9981 126.393 62.8664 125.024 64.8894 125.015C66.9691 124.997 68.918 126.432 68.9595 128.515ZM64.9134 130.128C65.7745 130.137 66.5113 129.4 66.4786 128.538C66.4459 127.71 65.7243 127.073 64.8894 127.088C64.0937 127.112 63.4484 127.727 63.407 128.53C63.3656 129.374 64.0697 130.119 64.9134 130.128Z" fill="#010101"/>
<path id="Vector_5" d="M79.435 131.97H77.9112L76.2478 128.292L74.5932 131.97H73.0454L69.6533 125.211H72.2344L73.8629 128.857L75.5088 125.211H76.9847L78.6218 128.898L80.3179 125.211H82.9317L79.435 131.97Z" fill="#010101"/>
<path id="Vector_6" d="M85.97 126.105L86.3798 125.686C86.9619 125.089 87.6159 124.982 88.453 125.047C89.7893 125.161 90.6068 126.275 90.6068 127.555V131.97H88.2241V128.069C88.2241 127.454 87.9625 126.898 87.1276 126.914C86.4801 126.929 85.9395 127.454 85.9395 128.111V131.97H83.5371V125.195H85.97V126.105Z" fill="#010101"/>
<path id="Vector_7" d="M96.947 125.211H99.3145V131.97H96.9056V131.24C96.3323 131.822 95.8091 132.084 94.9981 132.175C93.0165 132.407 91.3619 130.66 91.436 128.438C91.4927 126.539 92.8944 124.997 94.9175 124.973C95.9486 124.958 96.3192 125.261 96.9492 125.858V125.211H96.947ZM93.9648 128.702C93.9888 129.439 94.4488 130.086 95.3971 130.11C96.2734 130.143 97.0364 129.356 96.9776 128.479C96.9274 127.651 96.2407 127.012 95.421 127.029C94.5621 127.056 93.9321 127.849 93.9648 128.702Z" fill="#010101"/>
<path id="Vector_8" d="M101.867 129.448H104.086L101.677 133.815H100.171L101.867 129.448Z" fill="#010101"/>
<path id="Vector_9" d="M112.939 122.067C114.274 122.067 115.364 123.124 115.462 124.45C115.527 125.416 115.176 126.162 114.38 126.711C115.503 126.997 116.29 127.555 116.395 128.931C116.552 131.044 114.675 131.97 112.865 131.97H108.876V122.064H112.939V122.067ZM112.105 126.007C112.678 126.007 113.177 125.449 113.088 124.893C113.005 124.361 112.589 124.09 112.096 124.09H111.416V126.007H112.105ZM112.687 130.036C113.31 130.036 113.89 129.626 113.794 128.809C113.711 128.12 113.123 127.915 112.523 127.908H111.442V130.039H112.687V130.036Z" fill="#010101"/>
<path id="Vector_10" d="M124.48 125.368C123.906 124.605 123.218 124.278 122.267 124.286C120.817 124.313 119.655 125.475 119.614 126.918C119.566 128.418 120.769 129.836 122.267 129.72C123.111 129.655 123.874 129.426 124.456 128.689V131.737C123.457 132.195 122.744 132.287 121.654 132.189C118.901 131.936 116.839 129.592 116.937 126.822C117.035 123.964 119.525 121.783 122.393 121.833C123.22 121.851 123.728 121.964 124.482 122.3V125.368H124.48Z" fill="#010101"/>
<path id="Vector_11" d="M136.577 125.368C136.003 124.605 135.315 124.278 134.364 124.286C132.914 124.313 131.75 125.475 131.711 126.918C131.663 128.418 132.866 129.836 134.364 129.72C135.208 129.655 135.971 129.426 136.551 128.689V131.737C135.552 132.195 134.839 132.287 133.749 132.189C130.996 131.936 128.932 129.592 129.032 126.822C129.13 123.964 131.619 121.783 134.486 121.833C135.315 121.851 135.823 121.964 136.575 122.3V125.368H136.577Z" fill="#C32126"/>
<path id="Vector_12" d="M142.84 125.211H145.207V131.97H142.798V131.24C142.225 131.822 141.702 132.084 140.889 132.175C138.907 132.407 137.252 130.66 137.327 128.438C137.383 126.539 138.785 124.997 140.808 124.973C141.839 124.958 142.21 125.261 142.84 125.858V125.211ZM139.86 128.702C139.884 129.439 140.344 130.086 141.294 130.11C142.171 130.143 142.931 129.356 142.875 128.479C142.827 127.651 142.138 127.012 141.318 127.029C140.457 127.056 139.827 127.849 139.86 128.702Z" fill="#C32126"/>
<path id="Vector_13" d="M148.656 126.105L149.066 125.686C149.648 125.089 150.302 124.982 151.139 125.047C152.473 125.161 153.293 126.275 153.293 127.555V131.97H150.91V128.069C150.91 127.454 150.649 126.898 149.812 126.914C149.164 126.929 148.626 127.454 148.626 128.111V131.97H146.226V125.195H148.658V126.105H148.656Z" fill="#C32126"/>
<path id="Vector_14" d="M159.63 125.211H161.997V131.97H159.588V131.24C159.015 131.822 158.492 132.084 157.679 132.175C155.697 132.407 154.043 130.66 154.117 128.438C154.173 126.539 155.575 124.997 157.598 124.973C158.629 124.958 159 125.261 159.63 125.858V125.211ZM156.648 128.702C156.672 129.439 157.132 130.086 158.08 130.11C158.956 130.143 159.719 129.356 159.66 128.479C159.61 127.651 158.924 127.012 158.104 127.029C157.247 127.056 156.617 127.849 156.648 128.702Z" fill="#C32126"/>
<path id="Vector_15" d="M168.123 121.114H170.473V131.97H168.138V131.192C167.582 131.783 167.066 132.036 166.261 132.158C164.28 132.461 162.584 130.414 162.682 128.414C162.765 126.554 164.221 124.923 166.083 125.021C166.935 125.063 167.5 125.307 168.121 125.891V121.114H168.123ZM165.126 128.711C165.182 129.522 165.871 130.128 166.682 130.119C167.534 130.119 168.254 129.374 168.215 128.512C168.167 127.684 167.445 127.062 166.617 127.086C165.764 127.112 165.067 127.858 165.126 128.711Z" fill="#C32126"/>
<path id="Vector_16" d="M177.068 125.211H179.436V131.97H177.027V131.24C176.454 131.822 175.928 132.084 175.117 132.175C173.136 132.407 171.481 130.66 171.555 128.438C171.612 126.539 173.014 124.997 175.037 124.973C176.068 124.958 176.438 125.261 177.068 125.858V125.211ZM174.086 128.702C174.112 129.439 174.57 130.086 175.521 130.11C176.397 130.143 177.16 129.356 177.101 128.479C177.053 127.651 176.364 127.012 175.545 127.029C174.683 127.056 174.053 127.849 174.086 128.702Z" fill="#C32126"/>
</g>
</g>
<g id="Group_3">
<g id="Group_4">
<path id="Vector_17" d="M5.46777 52.8838L109.009 7.19141L212.548 52.8838L109.009 97.715L5.46777 52.8838Z" fill="white"/>
</g>
</g>
<g id="Group_5">
<path id="Vector_18" d="M109.077 11.7705L109 11.7378L16.6119 52.5088L16.2217 52.6811L108.926 92.8219L109 92.8547L201.779 52.6811L109.077 11.7705Z" fill="url(#paint0_linear_362_1504)"/>
</g>
<g id="Group_6">
<path id="Vector_19" d="M109 92.8547L108.926 92.8219L16.2217 52.6811L16.6119 52.5088L109 11.7378L109.077 11.7705L201.779 52.6811L109 92.8547ZM17.1547 52.6789L109 92.4469L200.848 52.6767L109 12.1455L17.1547 52.6789Z" fill="#004785"/>
</g>
<g id="Group_7">
<g id="Group_8">
<path id="Vector_20" d="M109.008 98.5284L108.712 98.3997L3.60547 52.8883L109.008 6.37598L109.309 6.50899L214.409 52.8905L109.008 98.5284ZM7.33109 52.8774L109.008 96.9017L210.684 52.8774L109.008 8.00699L7.33109 52.8774Z" fill="#0060A9"/>
</g>
<g id="Group_9">
<path id="Vector_21" d="M55.7885 111.049C56.024 111.103 56.2071 111.108 56.5472 111.034L56.6126 111.217L53.4363 112.342L53.3709 112.159C53.6826 112.004 53.8156 111.864 53.9421 111.705L48.4877 96.3021C48.2283 96.2563 48.0691 96.2432 47.7639 96.3282L47.7051 96.1669L50.8813 95.0396L50.9402 95.2009C50.7048 95.3099 50.5478 95.3884 50.3342 95.6457L55.7885 111.049Z" fill="black"/>
<path id="Vector_22" d="M57.5345 93.9602L57.0375 94.1062C56.2897 94.3243 56.3791 98.1227 56.3944 98.9971L56.1742 99.0625L54.9883 93.668L61.4062 91.7949L63.3638 96.9649L63.1131 97.0368C62.5703 96.2061 60.9244 93.6462 60.2443 93.3714C60.0023 93.2624 59.9129 93.2668 59.8301 93.2886L59.4159 93.4107L63.8238 108.513C64.0811 108.574 64.238 108.596 64.5825 108.539L64.637 108.727L61.3713 109.679L61.3168 109.492C61.6373 109.355 61.7833 109.245 61.9425 109.064L57.5345 93.9602Z" fill="black"/>
<path id="Vector_23" d="M68.2651 90.9182C68.9388 90.7612 69.8173 91.1144 70.1661 91.4764C70.3536 92.0324 70.2991 96.4349 69.6887 97.1086C69.0608 96.5657 67.6286 93.0355 66.798 92.2505C66.665 91.6814 67.6809 91.3368 68.2651 90.9182Z" fill="black"/>
<path id="Vector_24" d="M78.2558 99.6121L78.4476 99.708C78.2623 100.486 78.2798 100.746 78.3975 101.407C78.5632 102.342 78.6722 102.959 78.7594 103.295C78.8727 103.781 79.0711 104.403 79.8101 104.274C80.7475 104.108 80.5361 102.586 80.4183 101.926C80.1894 100.628 79.9736 99.2392 78.0945 97.5297C75.6223 95.4669 75.0272 93.4194 74.8332 92.3139C74.5432 90.6764 74.5956 88.6485 76.9783 88.2255C79.3327 87.809 80.1655 89.7039 80.5208 91.7252L80.6429 92.4055L78.7572 93.9907L78.5915 93.8861C78.7746 93.1076 78.7833 92.822 78.6242 91.9302C78.5108 91.2913 78.258 89.8434 77.8459 89.5011C77.7086 89.3942 77.5451 89.2896 77.2334 89.3441C76.3832 89.4945 76.6251 91.0318 76.7298 91.6271C77.1985 94.2873 77.7217 94.767 79.2913 96.1996C80.8652 97.6561 81.8615 98.6657 82.2888 101.09C82.5199 102.39 82.727 104.898 79.9758 105.384C77.5647 105.809 76.8715 103.871 76.6339 102.53L76.5031 101.784L78.2558 99.6121Z" fill="black"/>
<path id="Vector_25" d="M92.9644 87.244L92.4477 87.2876C91.6716 87.353 91.0024 91.0948 90.8432 91.9561L90.6143 91.9713L90.5293 86.4503L97.1892 85.8921L98.0786 91.3455L97.8214 91.3695C97.4552 90.445 96.3499 87.6103 95.7373 87.2069C95.5215 87.0499 95.4343 87.0347 95.3471 87.0434L94.9176 87.0805L96.2322 102.758C96.4698 102.869 96.6202 102.92 96.969 102.935L96.9865 103.129L93.5987 103.412L93.5835 103.218C93.9236 103.146 94.0914 103.066 94.2811 102.922L92.9644 87.244Z" fill="black"/>
<path id="Vector_26" d="M104.549 102.305C104.753 102.407 104.9 102.49 105.275 102.525L105.281 102.717L101.911 102.804L101.904 102.61C102.249 102.558 102.421 102.466 102.591 102.353L102.166 86.0209C101.933 85.8988 101.787 85.8377 101.47 85.8224L101.464 85.6502L104.834 85.563L104.841 85.7352C104.522 85.7658 104.352 85.8377 104.126 85.9707L104.313 93.1642L106.155 93.1162L105.968 85.9227C105.732 85.8006 105.588 85.7374 105.242 85.7243L105.237 85.5499L108.636 85.4648L108.64 85.6371C108.381 85.6676 108.211 85.7134 107.925 85.8726L108.348 102.205C108.645 102.37 108.817 102.41 109.076 102.425L109.081 102.621L105.682 102.706L105.678 102.512C105.878 102.484 106.107 102.457 106.391 102.255L106.186 94.3482L104.344 94.3962L104.549 102.305Z" fill="black"/>
<path id="Vector_27" d="M114.78 93.5895C115.414 93.6091 115.959 93.6222 116.404 92.1656L116.846 90.7069L117.134 90.7156L116.944 97.6496L116.656 97.643L116.29 96.2911C115.872 94.7016 115.471 94.6906 114.751 94.6688L114.557 101.734L115.104 101.749C115.479 101.76 115.826 101.705 116.12 101.431C116.742 100.864 117.175 99.7538 117.546 98.8554L118.318 96.9758L118.605 96.9824L118.041 102.802L111.878 102.634L111.884 102.438C112.233 102.405 112.405 102.325 112.61 102.22L113.059 85.888C112.804 85.7528 112.663 85.683 112.344 85.6525L112.351 85.478L118.398 85.6481L118.564 91.1452L118.248 91.1343L117.476 88.8665C116.731 86.638 116.358 86.5029 115.523 86.4767L114.976 86.4614L114.78 93.5895Z" fill="black"/>
<path id="Vector_28" d="M130.017 97.8718L130.174 98.0201C129.777 98.7157 129.718 98.9708 129.642 99.6358C129.537 100.582 129.466 101.201 129.455 101.55C129.428 102.047 129.442 102.702 130.185 102.787C131.129 102.894 131.36 101.376 131.436 100.709C131.584 99.4003 131.77 98.007 130.451 95.8352C128.668 93.151 128.676 91.0229 128.803 89.9064C128.99 88.2536 129.616 86.3217 132.02 86.5943C134.397 86.8646 134.658 88.9165 134.427 90.9574L134.351 91.6421L132.092 92.6255L131.964 92.4816C132.361 91.786 132.45 91.5135 132.552 90.6129C132.627 89.9675 132.792 88.5066 132.494 88.0596C132.393 87.9178 132.265 87.7739 131.951 87.7368C131.092 87.6387 130.889 89.1825 130.819 89.7843C130.516 92.4663 130.883 93.0769 131.979 94.8954C133.076 96.7401 133.747 97.9917 133.468 100.438C133.32 101.747 132.807 104.213 130.03 103.899C127.597 103.624 127.484 101.566 127.636 100.214L127.722 99.4614L130.017 97.8718Z" fill="black"/>
<path id="Vector_29" d="M143.725 88.8468C143.494 88.6528 143.363 88.5656 143.084 88.4958L143.113 88.3257L146.121 88.8403L146.095 89.0126C145.779 88.9799 145.543 88.982 145.343 89.1238L142.515 105.635L141.068 105.384L140.045 95.4756L140.135 88.6506L140.069 88.6833L138.157 104.446C138.389 104.638 138.491 104.723 138.827 104.799L138.794 104.991L135.781 104.477L135.816 104.285C136.132 104.318 136.283 104.278 136.566 104.171L139.324 88.0924C139.093 87.9005 138.962 87.8111 138.652 87.7348L138.683 87.5669L141.238 88.003L142.027 95.3513L142.151 101.444L142.214 101.413L143.725 88.8468Z" fill="black"/>
<path id="Vector_30" d="M152.637 105.602C152.332 106.906 151.34 107.717 149.349 107.248C147.416 106.792 146.731 105.678 147.056 104.289L149.973 91.8973C150.311 90.4669 151.488 89.8585 153.284 90.2793C155.218 90.735 155.883 91.8231 155.551 93.2121L152.637 105.602ZM153.731 92.5383C153.884 91.8885 153.718 91.4481 153.049 91.2889C152.292 91.1123 151.998 91.5964 151.878 92.1022L148.854 104.956C148.711 105.565 148.837 106.04 149.565 106.212C150.38 106.404 150.603 105.833 150.705 105.392L153.731 92.5383Z" fill="black"/>
<path id="Vector_31" d="M169.573 95.4779C169.364 95.2751 169.249 95.1726 168.981 95.0614L169.033 94.8957L171.941 95.8289L171.891 95.9925C171.61 95.9271 171.453 95.9445 171.165 95.9881L164.041 111.45L162.558 110.977L164.535 99.2196L164.481 99.2022L159.181 109.898L157.673 109.413L161.041 92.7457C160.832 92.5429 160.716 92.4383 160.42 92.3205L160.474 92.1548L163.655 93.1731L163.602 93.3388C163.212 93.2363 163.184 93.2254 163.123 93.2298C162.87 93.2625 162.837 93.2756 162.824 93.317L158.99 108.04L159.044 108.057L161.468 102.277L165.741 93.8425L167.084 94.2721L165.571 103.251L163.895 109.25L163.949 109.265L169.573 95.4779Z" fill="black"/>
</g>
<g id="Group_10">
<path id="Vector_32" d="M55.2348 111.302C55.4681 111.356 55.6534 111.358 55.9913 111.284L56.0567 111.467L52.8804 112.595L52.815 112.412C53.1267 112.255 53.2597 112.115 53.3862 111.956L47.9318 96.555C47.6702 96.507 47.5132 96.4961 47.208 96.5812L47.1514 96.4198L50.3276 95.2925L50.3843 95.4538C50.1467 95.5607 49.9919 95.6392 49.7783 95.8987L55.2348 111.302Z" fill="#FDB945"/>
<path id="Vector_33" d="M56.9808 94.2131L56.4816 94.357C55.736 94.575 55.8254 98.3756 55.8385 99.2478L55.6161 99.3133L54.4346 93.9165L60.8503 92.0435L62.8101 97.2134L62.5594 97.2876C62.0166 96.4546 60.3707 93.8969 59.6906 93.6221C59.4486 93.5131 59.3592 93.5153 59.2764 93.5393L58.8622 93.6614L63.2679 108.764C63.5252 108.822 63.6821 108.844 64.0266 108.79L64.0811 108.977L60.8154 109.932L60.7609 109.743C61.0814 109.605 61.2296 109.496 61.3866 109.313L56.9808 94.2131Z" fill="#FDB945"/>
<path id="Vector_34" d="M67.7111 91.1691C68.3869 91.0121 69.2632 91.3654 69.612 91.7317C69.7995 92.2877 69.7472 96.6902 69.1346 97.3618C68.5068 96.8188 67.0745 93.2886 66.2439 92.5058C66.1131 91.9345 67.1268 91.59 67.7111 91.1691Z" fill="#FDB945"/>
<path id="Vector_35" d="M77.7021 99.8648L77.894 99.9608C77.7108 100.739 77.7261 100.999 77.8438 101.657C78.0095 102.597 78.1163 103.212 78.2057 103.548C78.3212 104.032 78.5174 104.655 79.2543 104.525C80.1917 104.359 79.9824 102.839 79.8669 102.178C79.6358 100.879 79.42 99.4919 77.5408 97.7846C75.0687 95.7219 74.4736 93.6744 74.2795 92.5689C73.9918 90.9291 74.0419 88.9012 76.4246 88.4804C78.779 88.0639 79.6096 89.9566 79.9671 91.9779L80.087 92.6583L78.2035 94.2413L78.0378 94.1388C78.2253 93.3604 78.2319 93.0725 78.0749 92.1807C77.9616 91.5418 77.7065 90.0918 77.2966 89.7516C77.1593 89.6426 76.9958 89.5401 76.6819 89.5968C75.8339 89.7473 76.0737 91.2824 76.1805 91.8798C76.6492 94.54 77.1724 95.0176 78.7442 96.4523C80.3159 97.9089 81.3122 98.9141 81.7417 101.339C81.9727 102.638 82.182 105.148 79.4287 105.632C77.0154 106.057 76.3244 104.119 76.0867 102.78L75.956 102.034L77.7021 99.8648Z" fill="#FDB945"/>
<path id="Vector_36" d="M92.4101 87.4991L91.8935 87.5405C91.1174 87.606 90.4503 91.3477 90.289 92.209L90.0579 92.2264L89.9707 86.7032L96.6306 86.145L97.5222 91.6006L97.2628 91.6203C96.8987 90.6957 95.7935 87.8633 95.1809 87.4577C94.9651 87.3007 94.8779 87.2876 94.7885 87.2941L94.3612 87.3312L95.6714 103.009C95.9112 103.12 96.0616 103.173 96.4082 103.186L96.4257 103.38L93.0358 103.663L93.0183 103.469C93.3584 103.395 93.5263 103.319 93.7159 103.173L92.4101 87.4991Z" fill="#FDB945"/>
<path id="Vector_37" d="M103.997 102.556C104.199 102.658 104.348 102.743 104.723 102.776L104.727 102.97L101.357 103.055L101.352 102.863C101.699 102.809 101.869 102.719 102.039 102.606L101.616 86.2738C101.383 86.1495 101.235 86.0906 100.918 86.0754L100.914 85.9031L104.284 85.8137L104.289 85.9882C103.973 86.0187 103.8 86.0885 103.574 86.2237L103.761 93.4171L105.605 93.3692L105.418 86.1757C105.185 86.0514 105.036 85.9903 104.692 85.9794L104.685 85.8072L108.086 85.7178L108.088 85.89C107.831 85.9184 107.661 85.9664 107.378 86.1234L107.801 102.457C108.093 102.623 108.267 102.66 108.527 102.678L108.533 102.872L105.135 102.959L105.128 102.765C105.331 102.739 105.56 102.71 105.843 102.508L105.638 94.599L103.796 94.6469L103.997 102.556Z" fill="#FDB945"/>
<path id="Vector_38" d="M114.226 93.8402C114.858 93.8599 115.407 93.8729 115.85 92.4164L116.292 90.9598L116.58 90.9685L116.388 97.9003L116.103 97.8938L115.736 96.5441C115.318 94.9545 114.914 94.9436 114.195 94.9218L114.001 101.987L114.548 102.002C114.923 102.011 115.27 101.954 115.568 101.684C116.188 101.117 116.621 100.005 116.992 99.1062L117.766 97.2266L118.054 97.2353L117.489 103.055L111.326 102.885L111.333 102.691C111.679 102.656 111.854 102.578 112.056 102.473L112.508 86.1409C112.253 86.0057 112.111 85.9359 111.793 85.9054L111.797 85.731L117.844 85.8989L118.01 91.3937L117.692 91.3872L116.92 89.1173C116.174 86.891 115.804 86.7536 114.967 86.7274L114.42 86.7122L114.226 93.8402Z" fill="#FDB945"/>
<path id="Vector_39" d="M129.464 98.1271L129.621 98.2732C129.222 98.9688 129.165 99.2239 129.089 99.8889C128.982 100.833 128.912 101.457 128.901 101.803C128.875 102.301 128.888 102.955 129.632 103.04C130.576 103.147 130.807 101.629 130.881 100.964C131.029 99.6513 131.217 98.2623 129.898 96.0883C128.114 93.4063 128.123 91.276 128.25 90.1617C128.437 88.5067 129.063 86.5748 131.467 86.8495C133.844 87.1177 134.101 89.1696 133.874 91.2105L133.796 91.8974L131.539 92.8808L131.411 92.7369C131.807 92.0413 131.899 91.7687 131.999 90.866C132.071 90.2228 132.237 88.7618 131.94 88.3148C131.84 88.1731 131.714 88.027 131.398 87.9921C130.539 87.894 130.334 89.4378 130.268 90.0396C129.965 92.7238 130.329 93.3322 131.428 95.1529C132.522 96.9954 133.194 98.247 132.917 100.694C132.767 102.004 132.254 104.47 129.479 104.154C127.048 103.877 126.933 101.821 127.086 100.469L127.171 99.7167L129.464 98.1271Z" fill="#FDB945"/>
<path id="Vector_40" d="M143.169 89.102C142.938 88.9079 142.807 88.8185 142.528 88.7509L142.559 88.5786L145.567 89.0932L145.539 89.2655C145.225 89.2328 144.987 89.2371 144.789 89.3789L141.961 105.885L140.512 105.639L139.491 95.7285L139.581 88.9035L139.515 88.9362L137.604 104.701C137.835 104.895 137.937 104.978 138.273 105.059L138.24 105.249L135.229 104.734L135.262 104.542C135.578 104.575 135.731 104.536 136.012 104.429L138.768 88.3475C138.537 88.1556 138.404 88.0684 138.096 87.9899L138.125 87.8198L140.679 88.2581L141.469 95.6064L141.593 101.701L141.656 101.67L143.169 89.102Z" fill="#FDB945"/>
<path id="Vector_41" d="M152.084 105.855C151.777 107.159 150.787 107.97 148.796 107.499C146.861 107.043 146.176 105.929 146.503 104.54L149.42 92.1481C149.758 90.7177 150.935 90.1072 152.731 90.5302C154.665 90.9881 155.326 92.0762 155.001 93.4651L152.084 105.855ZM153.176 92.7892C153.331 92.1372 153.165 91.6989 152.494 91.5419C151.737 91.3631 151.445 91.8494 151.325 92.3531L148.302 105.205C148.156 105.818 148.284 106.289 149.012 106.461C149.823 106.653 150.048 106.084 150.152 105.643L153.176 92.7892Z" fill="#FDB945"/>
<path id="Vector_42" d="M169.02 95.7328C168.811 95.53 168.695 95.4253 168.427 95.3163L168.479 95.1506L171.387 96.0816L171.335 96.2452C171.054 96.1776 170.897 96.1972 170.609 96.2408L163.485 111.705L162.003 111.232L163.98 99.4723L163.923 99.4549L158.626 110.15L157.117 109.666L160.485 93.0006C160.278 92.7978 160.16 92.6931 159.864 92.5754L159.918 92.4097L163.099 93.4301L163.049 93.5959C162.657 93.4912 162.63 93.4825 162.569 93.489C162.316 93.5217 162.284 93.5326 162.271 93.5741L158.436 108.299L158.491 108.314L160.915 102.534L165.188 94.0996L166.53 94.5291L165.02 103.506L163.341 109.507L163.396 109.524L169.02 95.7328Z" fill="#FDB945"/>
</g>
<g id="Group_11">
<path id="Vector_43" d="M51.0166 89.2221C67.3492 85.6264 88.0003 83.9082 110.051 83.9082C131.169 83.9082 150.466 85.899 166.428 89.2221V74.665C150.466 71.3398 130.874 69.3926 109.757 69.3926C87.706 69.3926 67.3513 71.2351 51.0188 74.8286V89.2221H51.0166Z" fill="#009370"/>
<path id="Vector_44" d="M50.3447 90.0569V74.2875L50.8723 74.172C67.0828 70.6047 87.4461 68.7207 109.754 68.7207C130.316 68.7207 149.958 70.548 166.563 74.0062L167.097 74.1174V90.0482L166.288 89.8803C149.635 86.4133 130.187 84.5817 110.048 84.5817C87.2608 84.5817 66.8975 86.4133 51.16 89.8781L50.3447 90.0569ZM110.048 83.2363C129.954 83.2363 149.192 85.02 165.754 88.3976V75.2121C149.352 71.8432 130.004 70.0639 109.754 70.0639C87.7819 70.0639 67.7193 71.8977 51.6876 75.3691V88.3888C67.4032 85.0156 87.5573 83.2363 110.048 83.2363Z" fill="black"/>
</g>
<g id="Group_12">
<path id="Vector_45" d="M62.9274 78.5071C62.0401 78.0601 61.251 78.0165 60.6253 78.119C59.7664 78.2607 59.2083 78.7056 59.2912 79.2092C59.5179 80.583 63.5356 79.9048 63.9084 82.1813C64.0915 83.3042 63.1192 84.3007 61.6194 84.5471C60.6101 84.7128 59.7599 84.6365 58.9075 84.3116L58.6938 83.012C59.4852 83.5703 60.4051 83.797 61.3186 83.6509C62.3519 83.4787 62.7486 82.8987 62.6832 82.5018C62.4413 81.0234 58.3908 81.514 58.0704 79.5516C57.8785 78.385 58.8748 77.4605 60.5795 77.1814C61.2902 77.0658 62.0249 77.1181 62.7356 77.3471L62.9274 78.5071Z" fill="black"/>
<path id="Vector_46" d="M76.9555 82.4341L75.1025 82.6499L69.9316 79.6408L70.3414 83.1972L68.9964 83.3542L68.168 76.1542L69.5108 75.9994L69.8902 79.292L73.4501 75.5437L75.1243 75.3496L71.4401 79.2287L76.9555 82.4341Z" fill="black"/>
<path id="Vector_47" d="M82.7393 81.9586L81.3899 82.0698L80.8057 74.8437L82.1551 74.7368L82.7393 81.9586Z" fill="black"/>
<path id="Vector_48" d="M97.635 73.8846C99.5403 73.8258 100.752 74.5628 100.792 75.8166C100.816 76.656 100.271 77.3015 99.2722 77.6395C100.142 78.0472 100.687 78.7014 101.433 79.5801C101.849 80.0685 102.091 80.3062 102.76 80.9756L101.143 81.0258L99.8542 79.5779C98.5658 78.1301 97.9947 77.9752 97.3058 77.9992L96.739 78.0145L96.8349 81.161L95.4833 81.2024L95.2588 73.9588L97.635 73.8846ZM96.7107 77.0791L97.5805 77.0529C99.0302 77.0093 99.4248 76.4227 99.3942 75.8187C99.3594 75.1384 98.8209 74.7416 97.5107 74.7808L96.6409 74.8092L96.7107 77.0791Z" fill="black"/>
<path id="Vector_49" d="M112.523 74.6127L108.531 74.617L108.533 76.8063L112.39 76.8019L112.392 77.7373L108.535 77.7417L108.542 79.9963L112.658 79.992V80.9252L107.188 80.934L107.173 73.686L112.518 73.6772L112.523 74.6127Z" fill="black"/>
<path id="Vector_50" d="M122.123 75.4674C121.338 74.8634 120.569 74.6715 119.934 74.6541C119.065 74.6301 118.432 74.9637 118.419 75.4739C118.382 76.8651 122.455 76.9567 122.393 79.2615C122.361 80.3953 121.221 81.1956 119.703 81.152C118.681 81.1214 117.857 80.8881 117.083 80.4106L117.12 79.0936C117.792 79.7913 118.653 80.1882 119.577 80.2143C120.628 80.2405 121.125 79.7455 121.136 79.3421C121.177 77.8441 117.107 77.5629 117.161 75.5764C117.194 74.3968 118.347 73.675 120.072 73.7208C120.791 73.7426 121.504 73.9301 122.156 74.2899L122.123 75.4674Z" fill="black"/>
<path id="Vector_51" d="M132.309 74.2946C135.411 74.4952 137.257 76.3202 137.122 78.3328C136.996 80.2844 134.979 81.9198 131.794 81.7148C128.72 81.512 126.893 79.6368 127.02 77.6765C127.153 75.6726 129.265 74.094 132.309 74.2946ZM131.886 80.7597C133.994 80.8993 135.629 79.8221 135.731 78.2434C135.834 76.6539 134.356 75.3848 132.245 75.2496C130.15 75.1101 128.515 76.1763 128.413 77.7659C128.31 79.3468 129.791 80.6246 131.886 80.7597Z" fill="black"/>
<path id="Vector_52" d="M145.081 75.4916C146.975 75.701 148.069 76.6037 147.932 77.8509C147.838 78.6839 147.206 79.2443 146.171 79.4405C146.975 79.9682 147.422 80.69 148.039 81.6668C148.381 82.2098 148.588 82.478 149.157 83.2346L147.551 83.058L146.48 81.4422C145.41 79.8265 144.863 79.5953 144.176 79.519L143.611 79.4558L143.265 82.5826L141.922 82.4322L142.718 75.23L145.081 75.4916ZM143.714 78.5247L144.579 78.6228C146.018 78.7798 146.493 78.2565 146.548 77.6525C146.609 76.9722 146.134 76.5056 144.828 76.3617L143.962 76.2657L143.714 78.5247Z" fill="black"/>
<path id="Vector_53" d="M161.485 78.6925L158.263 78.1866L157.287 84.4229L155.948 84.2135L156.927 77.9773L153.707 77.4714L153.851 76.5469L161.629 77.768L161.485 78.6925Z" fill="black"/>
</g>
<g id="Group_13">
<path id="Vector_54" d="M62.5441 78.1233C61.659 77.6763 60.8677 77.6327 60.242 77.7374C59.3831 77.877 58.825 78.3218 58.9079 78.8255C59.1346 80.2014 63.1501 79.5189 63.5229 81.7975C63.706 82.9205 62.7359 83.9191 61.2361 84.1655C60.2268 84.3312 59.3766 84.2549 58.5242 83.93L58.3105 82.6304C59.1019 83.1887 60.0218 83.4176 60.9353 83.2672C61.9708 83.0993 62.3653 82.5171 62.2999 82.118C62.058 80.6396 58.0075 81.1281 57.6871 79.1678C57.4974 78.0056 58.4937 77.0789 60.1984 76.7976C60.9047 76.682 61.6438 76.7322 62.3523 76.9633L62.5441 78.1233Z" fill="white"/>
<path id="Vector_55" d="M76.5727 82.0527L74.7219 82.2664L69.5488 79.2573L69.9586 82.8137L68.6157 82.9707L67.7852 75.7707L69.1302 75.6159L69.5095 78.9084L73.0695 75.1623L74.7415 74.9683L71.0595 78.8474L76.5727 82.0527Z" fill="white"/>
<path id="Vector_56" d="M82.3577 81.5773L81.0083 81.6863L80.4219 74.4601L81.7713 74.3511L82.3577 81.5773Z" fill="white"/>
<path id="Vector_57" d="M97.2541 73.5008C99.1594 73.442 100.369 74.179 100.406 75.435C100.433 76.2723 99.8854 76.9177 98.8891 77.2578C99.7589 77.6678 100.302 78.3198 101.047 79.2007C101.462 79.6869 101.704 79.9246 102.375 80.594L100.76 80.6463L99.4712 79.1963C98.1828 77.7485 97.6138 77.5958 96.9206 77.6176L96.356 77.6351L96.4519 80.7772L95.0981 80.8186L94.8779 73.575L97.2541 73.5008ZM96.3298 76.6996L97.1996 76.6713C98.6471 76.6277 99.0461 76.0411 99.0156 75.435C98.9785 74.7546 98.4422 74.3578 97.1299 74.397L96.2622 74.4232L96.3298 76.6996Z" fill="white"/>
<path id="Vector_58" d="M112.141 74.2289L108.148 74.2354L108.152 76.4247L112.004 76.4181L112.006 77.3536L108.152 77.3601L108.159 79.6125L112.277 79.606V80.5414L106.807 80.5502L106.794 73.3022L112.139 73.2935L112.141 74.2289Z" fill="white"/>
<path id="Vector_59" d="M121.74 75.088C120.958 74.4796 120.188 74.2877 119.554 74.2703C118.684 74.2485 118.054 74.5821 118.038 75.0923C118.001 76.4835 122.074 76.5751 122.01 78.8799C121.98 80.0181 120.838 80.814 119.32 80.7747C118.298 80.7442 117.478 80.5109 116.702 80.0312L116.739 78.7141C117.411 79.4141 118.272 79.8088 119.196 79.8349C120.245 79.8633 120.742 79.3683 120.755 78.9627C120.796 77.4647 116.728 77.1834 116.781 75.197C116.813 74.0173 117.967 73.2956 119.691 73.3436C120.41 73.3632 121.123 73.5529 121.775 73.9105L121.74 75.088Z" fill="white"/>
<path id="Vector_60" d="M131.93 73.9104C135.03 74.1132 136.876 75.9383 136.743 77.9531C136.614 79.9046 134.598 81.54 131.415 81.3307C128.343 81.1323 126.514 79.257 126.643 77.2946C126.774 75.2885 128.88 73.712 131.93 73.9104ZM131.502 80.3778C133.613 80.513 135.245 79.438 135.348 77.8593C135.452 76.2697 133.972 75.0007 131.864 74.8655C129.769 74.7281 128.136 75.7922 128.032 77.3818C127.929 78.9627 129.407 80.2426 131.502 80.3778Z" fill="white"/>
<path id="Vector_61" d="M144.698 75.1098C146.594 75.3191 147.689 76.2197 147.549 77.4669C147.458 78.3021 146.826 78.8624 145.79 79.0565C146.594 79.5842 147.041 80.3081 147.656 81.285C147.998 81.8257 148.206 82.0961 148.774 82.8528L147.168 82.6761L146.093 81.0604C145.025 79.4446 144.48 79.2135 143.791 79.1372L143.229 79.0718L142.884 82.2008L141.539 82.0503L142.339 74.8481L144.698 75.1098ZM143.333 78.1451L144.196 78.241C145.64 78.4002 146.115 77.8747 146.167 77.2729C146.23 76.5947 145.753 76.1237 144.449 75.9776L143.584 75.8817L143.333 78.1451Z" fill="white"/>
<path id="Vector_62" d="M161.101 78.3087L157.879 77.8028L156.901 84.0412L155.564 83.8319L156.543 77.5935L153.323 77.0876L153.467 76.1631L161.245 77.3842L161.101 78.3087Z" fill="white"/>
</g>
<g id="Group_14">
<path id="Vector_63" d="M189.428 51.9726C190.309 51.7284 190.948 50.9369 191.052 49.9578C191.674 44.2035 188 39.6397 184.358 37.2891C183.486 36.7243 182.38 36.8835 181.672 37.6772C179.331 40.3091 176.388 42.1451 173.159 42.9846C172.152 43.2506 171.452 44.2558 171.496 45.3744C171.535 46.5017 171.524 47.6748 171.504 48.9809C171.483 50.6338 171.459 52.4959 171.596 54.3363C171.188 54.5499 170.853 54.8966 170.635 55.3327L170.353 55.8953C170.34 55.8626 170.327 55.8299 170.316 55.7994L170.253 44.0574L170.475 43.364C170.635 43.2506 171.171 43.1154 171.443 43.0456C171.91 42.9279 172.44 42.7927 172.978 42.5463C173.769 42.1821 174.29 41.3448 174.306 40.4137L174.31 40.163C174.332 38.8765 173.418 37.8233 172.233 37.7644C171.764 37.7405 171.302 37.7405 170.848 37.7405H170.783C170.493 37.7405 170.225 37.7405 169.968 37.7361C169.366 35.2198 168.154 33.1222 166.458 31.6612C165.895 31.175 165.15 31.0223 164.461 31.2513C163.787 31.4781 163.251 32.0472 163.029 32.7776C162.739 33.7458 161.731 34.6267 160.65 35.573C159.95 36.1792 159.159 36.8683 158.512 37.6663C157.932 38.375 157.799 39.3867 158.174 40.2437C158.529 41.0548 159.266 41.5672 160.088 41.589L160.177 49.694C160.214 50.5945 160.201 51.4427 160.186 52.2648C160.168 53.2896 160.151 54.345 160.223 55.4112C159.8 55.4592 159.405 55.638 159.081 55.9215L159.054 42.8145C159.052 41.903 158.557 41.0657 157.797 40.6841C157.021 40.2895 156.098 40.429 155.449 41.0374L154.228 42.1778C153.58 42.6706 152.626 42.8886 151.61 43.1176C150.509 43.3662 149.26 43.6453 148.096 44.3474C147.819 44.5131 147.588 44.7399 147.407 45.0037C147.021 41.8398 145.809 38.8569 142.504 36.9925C141.56 36.4605 140.407 36.7396 139.761 37.6576C139.031 38.7021 138.059 39.5852 136.949 40.4988C136.705 36.0135 135.273 33.0328 132.472 31.151C131.852 30.7367 131.089 30.6822 130.427 31.0071C129.777 31.3232 129.311 31.9643 129.18 32.7253C129.01 33.7109 128.122 34.5024 127.089 35.4248C126.527 35.9285 125.949 36.4518 125.415 37.0645C125.415 35.7627 125.413 34.703 125.413 34.051C125.546 33.9486 125.74 33.8352 125.982 33.7545H125.984C126.775 33.4907 127.372 32.7493 127.501 31.864C127.63 30.97 127.287 30.0913 126.607 29.5701C125.587 28.7873 124.717 27.2043 124.279 25.3334C124.028 24.2628 123.145 23.5345 122.117 23.5541C121.101 23.5781 120.244 24.35 120.032 25.4293C119.738 26.9513 118.565 28.4188 117.558 29.0817C117.089 29.3913 116.756 29.8754 116.603 30.4249C116.111 27.7777 114.576 25.2157 112.64 23.8419C112.012 23.3949 111.201 23.3317 110.523 23.6762C109.847 24.0186 109.383 24.7011 109.285 25.5013C109.183 26.3168 108.725 26.7747 107.526 27.7865C106.669 28.5104 105.701 29.3324 104.969 30.5688C104.561 31.26 104.513 32.1453 104.844 32.8823C105.182 33.6302 105.871 34.1361 106.643 34.1993L106.669 34.2015L106.66 53.5426C106.292 54.6524 105.756 55.6533 105.243 56.1919C105.228 56.1962 105.217 56.1984 105.206 56.2006C104.731 55.9542 104.138 54.9991 103.961 53.8805V32.9913C103.961 32.9237 103.957 32.8583 103.951 32.7907C103.948 32.758 103.946 32.7253 103.944 32.6948C103.739 28.4864 102.366 25.3857 100.075 23.9662C99.5644 23.6522 98.9497 23.5716 98.3872 23.746C97.8335 23.9183 97.3561 24.3325 97.0792 24.882L96.4732 26.0835C95.4333 27.588 94.2845 28.2836 92.5252 28.4799C91.7164 28.5584 90.5654 28.7546 89.9157 29.5439C89.6868 29.8231 89.5887 30.1152 89.6258 30.414C89.6934 30.9635 90.1904 31.4279 91.0275 32.0472C91.7251 32.5639 92.244 32.7406 92.7432 32.9106C93.0092 33.0022 93.2838 33.0938 93.5978 33.2443C93.916 33.8788 93.8703 37.8844 93.8463 40.0561C93.8397 40.5795 93.8354 41.0723 93.8332 41.5062C93.8092 45.8672 93.7852 50.3786 94.1864 54.6721C94.7117 58.5882 96.9441 60.5289 98.7382 62.0901C99.8544 63.0626 100.818 63.9021 101.337 65.0665C101.699 65.8777 102.466 66.3988 103.301 66.3988C103.31 66.3988 103.316 66.3988 103.325 66.3988C104.164 66.3901 104.934 65.8471 105.283 65.0185C105.727 63.961 106.556 63.1978 107.524 62.306C108.027 61.8437 108.635 61.2855 109.209 60.6248C110.129 61.5951 111.203 62.21 112.086 62.7137C113.401 63.4638 114.166 63.9348 114.606 64.8746C115.001 65.7141 115.814 66.2156 116.682 66.1589C117.545 66.1022 118.297 65.4982 118.594 64.6151L119.014 63.3744C119.418 62.8359 120.174 62.3278 120.904 61.8372C122.784 60.5769 125.356 58.8521 125.426 54.7658C125.426 54.7462 125.421 46.759 125.419 40.5402C125.809 40.9283 126.32 41.1508 126.849 41.1617L126.841 55.5922C126.782 55.6664 126.636 55.8234 126.3 56.0676C125.648 56.5364 125.28 57.3541 125.336 58.2023C125.393 59.0505 125.87 59.8006 126.579 60.1647C127.981 60.8821 129.271 62.5655 129.583 64.0831C129.786 65.0622 130.54 65.797 131.46 65.9125C131.545 65.9234 131.628 65.9278 131.713 65.9278C132.546 65.9278 133.315 65.411 133.679 64.5803C134.632 62.4128 135.72 61.0195 137.006 60.3152C137.614 59.9816 138.044 59.358 138.168 58.6319C138.246 58.8848 138.336 59.1377 138.436 59.3885C138.493 59.5324 138.562 59.6654 138.641 59.7897C139.415 61.0195 141.771 64.7634 145.499 64.9728C146.487 65.0316 147.389 64.3513 147.69 63.3286C147.823 62.8729 148.627 62.0094 149.48 61.5777C149.796 61.4033 150.086 61.1809 150.345 60.9127C151.459 62.825 153.291 64.2924 155.56 65.0731C156.09 65.2562 156.659 65.2126 157.16 64.9531C157.703 64.6718 158.117 64.1551 158.298 63.5336C158.328 63.429 158.911 63.1608 159.161 63.0452C159.996 62.6571 161.099 62.1425 161.88 60.9519C163.203 62.9907 165.49 64.5672 167.87 65.0403C168.982 65.2628 170.057 64.5432 170.364 63.3635C170.587 62.5088 170.863 62.3474 171.688 61.8699C172.272 61.5297 172.982 61.1176 173.632 60.3893C175.167 62.3213 177.321 63.5118 179.071 64.48L179.832 64.903C180.397 65.217 181.055 65.2519 181.641 65.0011C182.219 64.7503 182.673 64.2466 182.886 63.6165C183.167 62.777 183.627 62.5306 185.306 61.9985C186.961 61.4752 189.459 60.6859 190.621 57.5983C190.68 57.4413 190.723 57.2778 190.749 57.1164L190.941 55.928C191.127 54.7963 190.536 53.6908 189.537 53.2983C188.519 52.8993 187.403 53.3572 186.887 54.3842C186.675 54.8029 185.605 55.6707 183.525 56.3619C182.986 56.4034 182.313 55.9149 181.522 54.9032C181.471 54.7549 181.445 54.5085 181.443 54.1684L189.428 51.9726ZM182.027 48.6081C181.646 48.7389 181.245 48.8523 180.846 48.9482L180.861 46.6391C181.463 47.0774 181.964 47.7708 182.027 48.6081ZM147.45 51.3119C147.503 50.2609 147.559 49.1532 147.561 48.0346C147.939 48.4707 148.457 48.7367 149.018 48.7716C149.018 49.4999 149.005 50.2369 148.992 50.9521C148.97 52.1536 148.946 53.5055 148.996 54.8247C148.372 54.9512 147.821 55.3698 147.505 55.9738C147.466 56.048 147.433 56.1112 147.405 56.1635C147.282 54.6939 147.365 53.0454 147.45 51.3119ZM137.533 56.5124L137.082 56.0414C136.816 54.7069 136.873 53.041 136.927 51.4296L136.93 51.3882C136.971 50.1497 137.012 48.8676 136.923 47.6094C136.884 47.2409 136.914 46.9727 136.969 46.8113C136.991 46.8135 137.012 46.8157 137.039 46.8179C137.252 47.0599 137.429 47.3783 137.516 47.6792C137.61 48.8152 137.577 50.0865 137.547 51.3272C137.501 53.1239 137.455 54.9621 137.732 56.7523C137.671 56.6694 137.605 56.5887 137.533 56.5124ZM118.105 33.3707L118.792 33.5801C119.311 34.0031 119.729 34.9538 119.799 35.8783L119.821 54.0244C119.801 54.6197 119.581 55.1867 119.15 55.7579C118.866 56.0152 118.543 56.1003 118.293 55.9869C117.342 55.1997 116.935 53.3747 116.76 51.9661L116.688 32.0145C116.943 32.6686 117.458 33.1745 118.105 33.3707Z" fill="black"/>
<path id="Vector_64" d="M90.001 61.1786C89.5148 60.8167 89.0091 60.5201 88.4859 60.2933C91.1956 57.6811 91.0975 53.7082 91.0212 50.4833L91.019 50.4375C91.0038 49.7833 90.9885 49.1662 90.9994 48.584C91.0757 43.2353 88.6145 38.5995 83.8839 35.1761C83.413 34.836 82.8484 34.7073 82.2903 34.8142C81.7061 34.9276 81.2025 35.283 80.8689 35.815C78.9876 38.8241 75.9748 40.7495 72.8117 40.9675C72.2013 41.009 71.6301 41.3295 71.2486 41.8485C70.8736 42.3543 70.708 43.015 70.793 43.6583C71.0088 45.2915 70.8998 47.2125 70.7843 49.2469C70.6491 51.6498 70.4965 54.3406 70.9957 56.8198C70.575 56.6824 70.1281 56.689 69.7139 56.8285L69.6964 43.2571C69.6964 42.8079 69.5765 42.374 69.3498 41.9924C69.5526 41.4058 69.6725 40.804 69.703 40.2022C69.7095 40.1062 69.7095 40.0059 69.703 39.91C69.6092 38.3248 69.3084 36.5128 67.7889 35.1064C66.736 34.1099 65.3626 33.6193 63.5903 33.6105C63.4202 33.6105 63.2524 33.6302 63.0932 33.6716C61.2337 34.1339 59.7469 35.3811 59.0973 37.0208C58.1424 39.1446 58.4389 42.0491 59.7971 43.8153C59.9213 43.9897 60.0565 44.1554 60.2004 44.3146C59.8428 44.4367 59.5333 44.5545 59.239 44.6788C58.4302 45.0189 57.8961 45.8431 57.8525 46.7611C57.1004 45.4027 56.102 44.2732 54.8986 43.4315C55.0534 43.2462 55.1994 43.0521 55.3368 42.8493C57.4928 40.3744 58.2885 36.4604 57.4143 32.6293C56.381 28.0524 53.305 26.0398 50.8351 24.4241L50.7697 24.3805C50.2857 24.0621 49.8279 23.7612 49.4094 23.4538C48.8251 23.0264 48.0817 22.9326 47.4234 23.2008C46.7759 23.4647 46.2789 24.0534 46.0914 24.7751C45.6489 26.4912 44.585 27.5095 43.3184 28.5932C43.2923 28.5343 43.2683 28.4776 43.2443 28.4209C42.4486 26.585 42.15 25.8981 40.6654 24.5113C40.0942 23.9793 39.3247 23.8048 38.6053 24.0447C37.8902 24.2823 37.3256 25.1153 37.1556 25.6321C36.0699 28.9159 34.884 29.0249 33.8354 29.1209L33.6392 29.1405C33.6109 29.1427 30.7769 29.4501 30.2886 30.427C29.7523 31.502 30.4521 32.6358 31.141 33.0065C31.2478 33.0654 31.3699 33.1199 31.5116 33.1832C32.3247 33.5473 33.685 34.1535 34.1864 36.5302C34.5679 40.9566 34.5047 45.7145 34.4458 50.3154L34.4066 54.31C34.3761 54.5085 34.2366 54.7025 33.8158 55.2019C33.5629 55.5028 33.2774 55.8451 33.0027 56.2659C32.5427 56.9703 32.4729 57.8904 32.8217 58.6667C33.1793 59.4582 33.9074 59.9663 34.7227 59.9902C34.8644 59.9946 35.4377 60.2737 36.8983 63.7189C37.0182 64.0046 37.1338 64.2771 37.245 64.5279C37.6265 65.3848 38.4418 65.9103 39.3203 65.8602C40.1967 65.8122 40.9553 65.2038 41.2562 64.312C41.3128 64.1397 41.3695 64.0089 41.4349 63.8999C42.0126 63.8039 42.6448 64.1114 43.8504 64.7895C45.0581 65.4677 46.5143 66.2875 48.2758 66.2875C48.5875 66.2875 48.9101 66.2614 49.2437 66.2047C53.1066 65.5963 56.7145 62.258 58.6547 57.5045C58.6765 57.4543 58.6962 57.402 58.7136 57.3497C59.6074 54.7156 59.6161 51.4318 58.7398 48.7803C58.7376 48.7759 58.7376 48.7716 58.7354 48.7694C58.9948 48.9787 59.3 49.127 59.6336 49.1946L59.7011 57.6222C59.7033 57.7509 59.712 57.8577 59.7273 57.9493C60.2897 62.0094 63.5663 64.892 66.3719 65.8514C66.9823 66.0608 67.6429 65.9692 68.1857 65.6029C68.7133 65.2453 69.0751 64.6565 69.182 63.9849C69.1885 63.937 69.195 63.8977 69.2038 63.8672C69.2997 63.8279 69.437 63.78 69.5111 63.7538C70.0082 63.5815 70.7734 63.3133 71.4143 62.6221C71.2421 62.923 71.096 63.237 70.9739 63.5619C70.1106 65.8732 70.5793 68.7711 72.1119 70.6093C73.4875 72.2534 75.3862 73.0951 77.4551 72.9773C79.7375 72.8683 81.5883 71.9503 83.3803 71.0628C83.4675 71.0192 83.5525 70.9778 83.6375 70.9364C83.8163 71.7824 84.4158 72.4714 85.2159 72.696C85.5472 72.7898 86.6547 73.0754 87.7316 73.0754C87.8166 73.0754 87.8994 73.0733 87.9845 73.0689C88.1218 73.0624 88.2548 73.0427 88.3747 73.0122C89.9639 72.6219 91.3482 72.0986 92.2137 69.6281C93.0748 66.9439 92.29 63.5772 90.3062 61.4381C90.2059 61.3465 90.1056 61.2549 90.001 61.1786ZM47.8223 60.1778C46.7105 60.1342 45.8865 59.0723 45.4745 58.3985C44.3234 54.491 44.2013 51.2573 45.1409 49.5151C45.7143 48.7236 46.5557 48.2003 47.2904 48.1785C47.7308 48.1654 48.0926 48.3376 48.4087 48.7171C49.8301 51.1069 49.5707 55.2804 48.9167 58.1346C48.7314 58.9044 48.1668 59.8311 47.8223 60.1778ZM46.922 40.5336C46.2484 41.456 45.4592 42.1799 44.6177 42.8951L44.6657 42.4743L44.5392 42.6138L44.6352 35.4073C44.8161 34.5307 45.3873 33.8242 45.8494 33.5865C46.9067 33.2791 47.5389 34.4805 47.6872 34.7989C48.1275 36.6371 47.8136 38.9855 46.922 40.5336ZM81.0673 54.2163C81.0477 54.9773 81.0324 55.6641 81.0281 56.3401L81.0237 56.4905C81.0215 56.8416 81.015 57.1381 80.9997 57.3758C80.8668 57.0553 80.7643 56.6563 80.7774 56.2093C80.7774 56.1678 80.7621 52.8077 80.7469 49.2491L80.7381 47.3281C81.1916 49.3821 81.1284 51.8286 81.0673 54.2163ZM72.7484 60.9366C72.5326 61.1416 72.3342 61.3487 72.1533 61.5646C72.3299 61.2658 72.4672 60.9737 72.5675 60.6858C72.6264 60.7709 72.6874 60.8559 72.7484 60.9366Z" fill="black"/>
</g>
<g id="Group_15">
<path id="Vector_65" d="M86.2687 57.9122C85.837 57.5895 85.4032 57.3279 84.9716 57.1207C87.5352 54.4583 87.4415 50.5574 87.363 47.2975C87.3478 46.6565 87.3325 46.0481 87.3412 45.4725C87.4197 40.0583 84.9323 35.368 80.1472 31.9076C79.6327 31.5347 79.0136 31.393 78.4011 31.5129C77.7645 31.6372 77.2173 32.0209 76.8554 32.5988C75.0046 35.5555 72.0485 37.4504 68.9486 37.6641C68.2793 37.7077 67.658 38.0566 67.2438 38.6213C66.8405 39.1664 66.6596 39.8751 66.7511 40.5685C66.9648 42.1886 66.8558 44.0987 66.7424 46.1223C66.6094 48.4488 66.4634 51.0415 66.8906 53.4466C66.6116 53.3986 66.3282 53.4008 66.0535 53.4596L66.0383 40.1433C66.0361 39.6767 65.9205 39.234 65.7134 38.8525C65.8987 38.2942 66.0143 37.7055 66.0448 37.1037C66.0513 36.999 66.0513 36.8944 66.0448 36.7897C65.9489 35.1652 65.6393 33.3074 64.0697 31.8574C62.9754 30.8238 61.5584 30.318 59.7359 30.3114C59.5462 30.3114 59.3631 30.3332 59.1931 30.3768C57.2812 30.8544 55.753 32.1343 55.075 33.8155C54.0853 36.0025 54.3905 39.0007 55.7857 40.8171C55.8598 40.9218 55.9361 41.0199 56.0168 41.118C55.7814 41.203 55.5459 41.2924 55.3105 41.3927C54.5998 41.6915 54.0875 42.3325 53.8913 43.0892C53.1959 41.964 52.3282 41.0177 51.3254 40.2829C51.4279 40.1542 51.526 40.019 51.6241 39.8795C53.8281 37.3545 54.6412 33.3947 53.7474 29.4807C52.6967 24.8275 49.5836 22.7909 47.0853 21.1533C46.5796 20.8219 46.1043 20.5101 45.6662 20.1917C45.0274 19.7251 44.2165 19.6226 43.4949 19.9148C42.7907 20.2026 42.2501 20.8393 42.0495 21.6199C41.6462 23.1877 40.7241 24.1384 39.536 25.1676C38.749 23.3556 38.4373 22.66 36.9396 21.2623C36.3183 20.6823 35.4768 20.4926 34.6855 20.7521C33.9051 21.0138 33.2968 21.91 33.1137 22.4616C32.0673 25.6255 30.949 25.728 29.9614 25.8196L29.7652 25.8392C29.6453 25.8523 26.8004 26.1554 26.2598 27.2304C25.7192 28.3119 26.3165 29.594 27.1907 30.0672C27.2953 30.1239 27.4261 30.1828 27.5743 30.2504C28.4049 30.6211 29.6562 31.1793 30.1402 33.4535C30.5173 37.8625 30.4563 42.6095 30.3953 47.2038L30.356 51.1941C30.3277 51.3315 30.21 51.495 29.8132 51.9682C29.5712 52.256 29.2704 52.6158 28.9848 53.0519C28.4878 53.8107 28.4136 54.8007 28.7886 55.638C29.1745 56.4993 29.968 57.0509 30.8247 57.0727C31.0057 57.1381 31.5637 57.62 32.863 60.688L32.9241 60.8297C33.0243 61.0652 33.1203 61.2898 33.2118 61.4992C33.626 62.4324 34.5155 62.995 35.4725 62.9448C36.4295 62.8947 37.2557 62.2362 37.5805 61.2658C37.6198 61.1459 37.659 61.0522 37.6983 60.9737C38.1997 60.93 38.7992 61.2331 39.9022 61.8524C41.0707 62.5087 42.6054 63.3722 44.4366 63.3722C44.7549 63.3722 45.0819 63.346 45.4155 63.2893C49.346 62.6701 53.0106 59.2881 54.9835 54.4561C55.0053 54.4038 55.0227 54.3536 55.038 54.3079C55.3257 53.4575 55.5219 52.5395 55.6288 51.5975L55.6527 54.5106C55.6527 54.6306 55.6615 54.7483 55.6767 54.8726C56.2522 59.0156 59.592 61.9527 62.4522 62.9317C62.6876 63.0124 62.9296 63.0517 63.1716 63.0517C63.6119 63.0517 64.0501 62.9187 64.4338 62.6614C65.0093 62.2732 65.4017 61.6365 65.5129 60.9126C65.5129 60.9104 65.5129 60.9082 65.5129 60.9039C65.5805 60.8799 65.6546 60.8559 65.7156 60.8341C66.0601 60.7142 66.5266 60.5506 66.9953 60.2432C66.9757 60.2933 66.9539 60.3413 66.9342 60.3915C66.047 62.766 66.5288 65.7424 68.1049 67.6307C69.5197 69.3228 71.4839 70.1819 73.605 70.0685C75.9202 69.9573 77.7885 69.035 79.6066 68.1366C79.6218 68.1279 79.6371 68.1213 79.6524 68.1126C79.8987 68.9172 80.5113 69.5583 81.307 69.7807C81.743 69.9028 82.8155 70.1667 83.875 70.1667C83.9622 70.1667 84.0494 70.1645 84.1366 70.1623C84.2783 70.1557 84.4179 70.1339 84.5661 70.1012C86.2098 69.6978 87.6421 69.1571 88.5402 66.5884C89.4231 63.841 88.6209 60.3958 86.5957 58.2153C86.4954 58.0954 86.3864 57.9994 86.2687 57.9122ZM43.8938 56.8699C42.915 56.7805 42.176 55.8146 41.7988 55.2019C40.687 51.4122 40.5562 48.1915 41.45 46.5082C41.9798 45.7756 42.7733 45.2784 43.4491 45.2588C43.8524 45.2566 44.1358 45.3896 44.4105 45.7189C45.7882 48.0585 45.531 52.1535 44.8835 54.9751C44.707 55.7034 44.1794 56.5451 43.8938 56.8699ZM42.9063 37.3217C42.3133 38.1307 41.6223 38.7892 40.8832 39.4281L40.977 32.3088C41.1514 31.4976 41.6898 30.8566 42.0735 30.6494C42.939 30.4183 43.4731 31.3581 43.6606 31.7658C44.0835 33.5691 43.7805 35.8107 42.9063 37.3217ZM55.2146 46.0983C55.3345 46.155 55.4565 46.2029 55.5852 46.2378L55.6004 48.0106C55.5154 47.3564 55.389 46.7132 55.2146 46.0983Z" fill="#0060A9"/>
<path id="Vector_66" d="M187.397 46.866C188.027 41.0201 184.305 36.393 180.613 34.0119C179.658 33.397 178.452 33.5715 177.68 34.435C175.365 37.0363 172.455 38.8505 169.263 39.6834C168.171 39.9691 167.41 41.0528 167.452 42.263C167.495 43.423 167.478 44.6615 167.463 45.8717C167.441 47.5965 167.421 49.3605 167.546 51.1093C167.184 51.3273 166.874 51.6478 166.654 52.0534L166.597 40.9699L166.785 40.3812C166.97 40.2896 167.461 40.1653 167.633 40.1217C168.058 40.0149 168.638 39.871 169.207 39.6115C170.066 39.2168 170.63 38.3119 170.648 37.311L170.652 37.0581C170.674 35.6691 169.68 34.5287 168.391 34.4633C167.899 34.4371 167.408 34.4371 166.929 34.4371C166.711 34.4371 166.49 34.4393 166.268 34.4371C165.649 31.9666 164.428 29.869 162.73 28.4059C162.117 27.8782 161.3 27.7125 160.548 27.961C159.811 28.2053 159.231 28.8223 158.991 29.6117V29.6139C158.717 30.5319 157.725 31.3975 156.672 32.3155C155.968 32.9282 155.168 33.6238 154.507 34.4328C153.881 35.1981 153.74 36.2884 154.145 37.2064C154.208 37.3525 154.289 37.4877 154.374 37.6163C154.267 37.5356 154.152 37.4615 154.032 37.4004C153.179 36.9687 152.172 37.1213 151.464 37.7842L150.239 38.9312C149.622 39.3869 148.697 39.5962 147.703 39.8186C146.591 40.0716 145.334 40.355 144.148 41.0702C143.978 41.1727 143.825 41.2948 143.688 41.43C143.241 38.3795 141.972 35.5318 138.748 33.711C137.717 33.131 136.457 33.4341 135.752 34.4328C135.085 35.3857 134.218 36.1968 133.267 36.9949C133.019 33.4319 131.94 30.0369 128.729 27.8782C128.053 27.4246 127.216 27.3658 126.494 27.719C125.792 28.0614 125.286 28.7548 125.142 29.5746V29.5768C124.985 30.497 124.122 31.2667 123.122 32.1585C122.67 32.5619 122.208 32.9784 121.761 33.445C121.761 32.6731 121.761 31.8707 121.759 31.0334C121.864 30.9636 122.012 30.8829 122.199 30.8219C123.074 30.5319 123.704 29.7469 123.845 28.7766C123.985 27.8128 123.614 26.8643 122.88 26.3017C121.894 25.5429 121.048 23.9991 120.621 22.174C120.351 21.014 119.394 20.205 118.271 20.2464C117.164 20.2726 116.231 21.1077 116.002 22.2765C115.72 23.7287 114.559 25.1787 113.61 25.8045C113.279 26.0226 113.011 26.3213 112.817 26.6658C112.208 24.1931 110.733 21.8644 108.91 20.5713C108.226 20.0829 107.338 20.0131 106.595 20.3903C105.863 20.7588 105.359 21.498 105.252 22.3615C105.158 23.1073 104.716 23.5455 103.563 24.5224C102.695 25.2572 101.71 26.0902 100.96 27.357C100.519 28.1028 100.469 29.0578 100.825 29.845C101.171 30.6125 101.856 31.1446 102.634 31.258L102.625 50.3962C102.287 51.408 101.808 52.3238 101.348 52.8493C100.968 52.568 100.469 51.7569 100.31 50.756V29.8755C100.31 29.8058 100.306 29.736 100.299 29.6684L100.293 29.5703C100.083 25.2943 98.6751 22.1391 96.3294 20.6869C95.7735 20.3424 95.102 20.2552 94.4851 20.447C93.8812 20.6346 93.3624 21.0859 93.0616 21.679L92.4621 22.8674C91.4614 24.3109 90.3475 24.9825 88.6623 25.1722C87.8187 25.2529 86.6153 25.4578 85.9221 26.3017C85.6583 26.6222 85.5471 26.9646 85.5885 27.3178C85.6713 28.0003 86.3079 28.5214 87.0666 29.0862C87.7903 29.6226 88.3222 29.8036 88.8367 29.978C89.0874 30.0631 89.3272 30.1437 89.5997 30.268C89.8744 31.0661 89.8308 34.8623 89.8068 36.9382L89.7937 38.4514C89.7719 42.8103 89.7501 47.3174 90.1491 51.5824C90.6854 55.5706 92.946 57.5396 94.7641 59.1204C95.8607 60.0777 96.809 60.9041 97.3126 62.027C97.705 62.908 98.5399 63.4727 99.4424 63.4727C99.4555 63.4727 99.4664 63.4727 99.4795 63.4727C100.395 63.4618 101.232 62.8731 101.612 61.9747C102.043 60.9477 102.858 60.1998 103.802 59.3341C104.306 58.8718 104.847 58.3725 105.37 57.7947C106.277 58.7039 107.303 59.2883 108.141 59.7659C109.42 60.4963 110.166 60.9542 110.582 61.8395C111.009 62.751 111.908 63.3004 112.845 63.2372C113.785 63.1718 114.602 62.5155 114.925 61.5648L115.341 60.3371C115.727 59.8422 116.427 59.3755 117.168 58.8806C118.973 57.6704 121.698 55.8388 121.766 51.6675C121.766 51.6587 121.768 51.6348 121.761 37.8344C122.08 38.0546 122.439 38.1941 122.808 38.2334L122.799 52.4088C122.729 52.483 122.592 52.6138 122.337 52.7991C121.633 53.3094 121.236 54.1903 121.295 55.0996C121.354 56.0154 121.868 56.8287 122.638 57.2234C123.97 57.9059 125.245 59.5674 125.541 61.0087C125.762 62.0685 126.581 62.8643 127.582 62.9908C127.673 63.0017 127.767 63.0083 127.859 63.0083C128.768 63.0083 129.605 62.4457 129.999 61.5451C130.935 59.4192 131.996 58.0542 133.243 57.3717C133.727 57.1078 134.107 56.6739 134.325 56.1549C134.349 56.2182 134.373 56.2836 134.399 56.3468C134.458 56.4973 134.532 56.639 134.617 56.7764C135.404 58.028 137.797 61.8395 141.63 62.0532C142.744 62.1143 143.692 61.3816 144.015 60.2717C144.135 59.8596 144.913 59.0419 145.717 58.6364C145.983 58.4903 146.23 58.3093 146.454 58.1043C147.596 59.9338 149.417 61.3794 151.64 62.147C151.876 62.2276 152.12 62.2669 152.362 62.2669C152.715 62.2669 153.066 62.1819 153.393 62.0118C153.982 61.7065 154.431 61.1461 154.601 60.5268C154.686 60.4331 155.196 60.1954 155.386 60.1082C156.151 59.7528 157.215 59.2556 158.019 58.1828C159.379 60.1409 161.601 61.6455 163.979 62.1208C164.127 62.1513 164.276 62.1644 164.419 62.1644C165.466 62.1644 166.401 61.4252 166.693 60.3023C166.896 59.5282 167.112 59.4017 167.934 58.9242C168.466 58.6124 169.133 58.2221 169.76 57.5766C171.289 59.417 173.347 60.5574 175.121 61.5386L175.88 61.9616C176.224 62.1535 176.599 62.2494 176.976 62.2494C177.275 62.2494 177.574 62.1884 177.857 62.0663C178.487 61.7937 178.98 61.2486 179.211 60.5683C179.453 59.8443 179.817 59.6067 181.511 59.0703C183.198 58.5339 185.749 57.7249 186.941 54.561C187.006 54.3887 187.054 54.2099 187.081 54.0377L187.275 52.8515C187.473 51.6326 186.832 50.4377 185.749 50.0125C184.639 49.5764 183.42 50.0713 182.854 51.1921C182.692 51.5127 181.698 52.3761 179.636 53.063C179.193 53.0804 178.561 52.6334 177.829 51.7024C177.796 51.589 177.783 51.4123 177.779 51.2074L185.633 49.0378C186.577 48.7805 187.286 47.9061 187.397 46.866ZM177.19 45.5904L177.201 43.9376C177.587 44.3061 177.888 44.7945 177.968 45.3636C177.715 45.4465 177.454 45.5206 177.19 45.5904ZM156.046 38.6608L156.133 46.5934C156.173 47.5005 156.155 48.3771 156.142 49.1664C156.127 50.1477 156.112 51.1398 156.168 52.1363C155.904 52.1908 155.649 52.2933 155.418 52.435L155.394 39.7074C155.394 39.1667 155.233 38.6499 154.95 38.2247C155.27 38.4645 155.645 38.6172 156.046 38.6608ZM144.978 45.8303C144.978 46.4299 144.967 47.0404 144.956 47.6706L144.952 47.8363C144.93 49.0661 144.906 50.3156 144.95 51.5628C144.466 51.7002 144.028 51.9945 143.707 52.4197C143.648 51.1267 143.72 49.7028 143.795 48.2092C143.84 47.2912 143.888 46.3318 143.901 45.3571C144.217 45.6057 144.586 45.7736 144.978 45.8303ZM133.407 52.834C133.163 51.5563 133.215 49.9863 133.269 48.3139C133.311 47.0601 133.354 45.7627 133.263 44.4805C133.248 44.3344 133.245 44.2102 133.25 44.1055C133.346 44.2559 133.424 44.4217 133.474 44.5808C133.568 45.682 133.538 46.8943 133.505 48.2092C133.466 49.8097 133.424 51.4407 133.607 53.0455L133.407 52.834ZM114.199 30.4425L114.848 30.6409C115.26 31.0007 115.688 31.8423 115.758 32.7865L115.775 50.9065C115.755 51.4581 115.555 51.9858 115.158 52.5157C114.944 52.7054 114.711 52.7795 114.535 52.7097C113.841 52.1101 113.338 50.7538 113.102 48.8503L113.033 29.6335C113.333 30.0151 113.737 30.3007 114.199 30.4425Z" fill="#0060A9"/>
</g>
<g id="Group_16">
<path id="Vector_67" d="M60.2534 40.8409C60.6545 40.8409 61.0709 40.7821 61.4873 40.6599C62.8912 40.1061 63.931 38.5885 64.0182 36.9313C63.9507 35.7974 63.7937 34.5066 62.7538 33.5406C62.0235 32.8516 61.0643 32.518 59.6495 32.5332C58.3393 32.8603 57.3169 33.6954 56.9267 34.7421C56.2531 36.1659 56.4449 38.2178 57.3562 39.404C58.0102 40.3285 59.074 40.8409 60.2534 40.8409Z" fill="white"/>
<path id="Vector_68" d="M66.6727 55.662C66.544 55.5965 66.3827 55.6183 66.2781 55.7208C66.0993 55.8974 65.9511 56.0675 65.8203 56.2202C65.393 56.7173 65.3276 56.7936 64.8698 56.5102C64.3815 56.2223 64.1133 55.5813 64.024 55.0667L64.0065 40.1455C64.0065 40.0016 63.915 39.8729 63.7798 39.825C63.6446 39.777 63.492 39.8206 63.4027 39.9318C62.099 41.5476 60.2962 42.0861 58.3887 42.6574C57.6104 42.8908 56.806 43.1306 56.0495 43.449C55.91 43.5078 55.825 43.6539 55.8446 43.8044C55.8642 43.9548 55.9819 44.0748 56.1324 44.0966C56.261 44.1162 56.4049 44.1162 56.5466 44.114C56.7122 44.1097 56.8823 44.1097 57.0131 44.1707C57.2354 44.247 57.3401 44.4607 57.4927 44.8031C57.5319 44.8903 57.569 44.9753 57.6104 45.0582L57.6911 54.5325C58.1358 57.7334 60.7888 60.0317 63.0648 60.8101C63.0996 60.8232 63.1367 60.8276 63.1759 60.8276C63.237 60.8276 63.298 60.8101 63.3525 60.7796C63.4375 60.7273 63.4964 60.64 63.5117 60.5397C63.7166 59.1987 64.3575 58.9741 65.0987 58.7168C65.5979 58.5424 66.1647 58.344 66.4765 57.7901C66.967 57.1163 67.1675 56.569 67.0738 56.1635C67.0171 55.9454 66.8798 55.771 66.6727 55.662Z" fill="white"/>
<path id="Vector_69" d="M168.739 53.008C168.599 52.9949 168.46 53.0668 168.397 53.1933L167.782 54.4275C167.163 54.9072 166.511 55.2888 165.859 54.953C165.279 54.7829 165.022 54.12 164.773 53.4811C164.723 53.3525 164.675 53.226 164.623 53.1061L164.562 40.6009L164.965 39.334C165.414 38.4139 166.269 38.1958 167.174 37.9669C167.59 37.86 168.022 37.751 168.416 37.57C168.534 37.5155 168.612 37.3977 168.615 37.2669L168.619 37.0183C168.623 36.8352 168.479 36.6825 168.296 36.6738C167.852 36.652 167.389 36.6498 166.938 36.652C166.127 36.6564 165.325 36.6542 164.59 36.5255C164.255 33.8479 163.154 31.5889 161.473 30.141C161.386 30.0669 161.27 30.0407 161.157 30.0734C161.046 30.1061 160.961 30.1912 160.926 30.3024C160.461 31.8484 159.182 32.9626 157.946 34.042C157.27 34.6307 156.57 35.2391 156.029 35.9041C155.944 36.0088 155.929 36.1549 155.99 36.2748C156.053 36.3947 156.171 36.4645 156.315 36.458C156.385 36.4536 156.468 36.4449 156.564 36.4318C157.364 36.3402 157.898 36.3686 158.057 36.7959L158.164 46.558C158.203 47.439 158.188 48.3308 158.172 49.1943C158.135 51.4969 158.098 53.673 158.988 55.6573C159.827 57.72 162.031 59.4841 164.344 59.9485C164.366 59.9529 164.39 59.955 164.412 59.955C164.562 59.955 164.701 59.8526 164.739 59.7021C165.177 58.0231 166.047 57.5172 166.966 56.9808C167.647 56.584 168.351 56.1741 168.9 55.2473C169.072 54.748 169.199 53.963 169.027 53.2631C168.996 53.1257 168.881 53.0232 168.739 53.008Z" fill="white"/>
<path id="Vector_70" d="M145.585 53.728C145.445 53.7062 145.282 53.813 145.214 53.9416C144.902 54.5326 144.732 54.8575 143.989 55.25C143.629 55.4702 143.08 55.6054 142.659 55.3546C142.282 55.2172 141.964 54.7114 141.811 54.0289C141.56 52.1972 141.665 50.1083 141.768 48.087C142.012 43.2201 142.262 38.1875 137.815 35.6799C137.665 35.5927 137.471 35.6363 137.371 35.7802C136.285 37.324 134.818 38.5124 133.399 39.6615C133.096 39.9058 132.795 40.15 132.496 40.3986C132.346 40.4531 132.191 40.525 132.034 40.5992C131.759 40.7278 131.476 40.8586 131.238 40.8761C131.465 36.6699 131.173 32.1257 127.663 29.7664C127.567 29.701 127.443 29.6901 127.34 29.7359C127.233 29.7817 127.159 29.8776 127.14 29.991C126.845 31.6983 125.662 32.7559 124.41 33.8745C123.848 34.3782 123.266 34.8971 122.782 35.4772C122.679 35.5993 122.677 35.7759 122.773 35.9024C122.869 36.0288 123.041 36.0703 123.185 36.0027C123.49 35.8609 123.817 35.8086 124.062 35.8282C124.467 35.9743 124.729 36.2403 124.838 36.6132L124.829 52.7467C124.748 53.6102 124.053 54.2164 123.46 54.6481C123.364 54.7179 123.312 54.8313 123.32 54.949C123.329 55.0668 123.399 55.1715 123.504 55.226C125.428 56.2116 127.083 58.3942 127.526 60.5289C127.556 60.6729 127.676 60.7819 127.822 60.7971C127.833 60.7993 127.846 60.7993 127.857 60.7993C127.99 60.7993 128.114 60.7208 128.169 60.5965C129.302 58.0105 130.665 56.3119 132.335 55.4004C132.426 55.3503 132.489 55.2587 132.507 55.154C132.522 55.0493 132.489 54.9447 132.415 54.8684L131.583 53.9983C131.103 52.2779 131.173 50.2304 131.238 48.2462C131.277 47.0491 131.319 45.8127 131.236 44.6549C131.114 43.5341 131.415 42.5333 132.036 41.9772C132.503 41.5738 133.348 41.6305 134.002 41.8246C134.702 42.3523 135.28 43.2768 135.478 44.1556C135.607 45.4617 135.57 46.8834 135.535 48.2593C135.472 50.7385 135.406 53.3049 136.294 55.5312C137.414 57.3171 139.2 59.7069 141.735 59.8486C141.896 59.8639 142.036 59.7571 142.079 59.6044C142.43 58.4051 143.734 57.2059 144.85 56.6367C145.628 56.2094 146.073 55.0624 145.883 53.97C145.862 53.8261 145.729 53.7519 145.585 53.728Z" fill="white"/>
<path id="Vector_71" d="M156.598 54.3163C156.463 54.3032 156.35 54.3904 156.291 54.5038C155.809 55.4109 155.055 56.3943 154.244 55.9887C153.856 55.7031 153.537 55.134 153.391 54.4624L153.361 39.7091C153.361 39.5739 153.28 39.4518 153.156 39.3973C153.032 39.3428 152.888 39.3689 152.79 39.4627L151.506 40.6663C150.54 41.4404 149.371 41.7043 148.133 41.9834C147.109 42.2145 146.049 42.4544 145.125 43.0104C144.981 43.0976 144.922 43.2764 144.988 43.4334C145.053 43.5882 145.223 43.6711 145.384 43.6296L145.48 43.61C145.578 43.5926 145.711 43.5708 145.838 43.4988C146.444 43.6144 146.821 43.8717 146.987 44.2773C147.026 45.4591 147.004 46.6845 146.982 47.8729C146.936 50.3848 146.891 52.984 147.427 55.315C148.125 57.8095 150.376 59.3903 152.251 60.0379C152.288 60.051 152.325 60.0576 152.362 60.0576C152.417 60.0576 152.469 60.0445 152.517 60.0205C152.6 59.9769 152.661 59.9027 152.687 59.8133C152.975 58.8277 153.723 58.4789 154.588 58.0777C155.412 57.6939 156.347 57.26 156.814 56.0999C156.829 56.0193 156.851 55.9342 156.873 55.8426C156.973 55.4196 157.097 54.8919 156.899 54.4951C156.845 54.3839 156.725 54.3185 156.598 54.3163Z" fill="white"/>
<path id="Vector_72" d="M118.651 22.7252C118.614 22.5704 118.453 22.4548 118.313 22.4635C118.152 22.4657 118.017 22.5813 117.986 22.7383C117.563 24.9188 115.965 26.842 114.662 27.7033C114.55 27.7753 114.494 27.9061 114.511 28.0347C114.531 28.1656 114.622 28.2724 114.749 28.3117L115.656 28.5777C116.822 29.2602 117.681 30.913 117.79 32.6705L117.81 50.9126C117.772 52.0813 117.376 53.1214 116.621 54.0612C115.704 55.0054 114.47 55.2191 113.5 54.6238C112.207 53.6709 111.389 51.7717 111.071 49.0155L110.991 27.9344C110.646 25.7561 109.364 23.5429 107.797 22.4287C107.699 22.3589 107.572 22.3458 107.463 22.3938C107.354 22.4417 107.278 22.5442 107.263 22.662C107.049 24.3737 105.961 25.296 104.81 26.2707C104.032 26.9292 103.228 27.6117 102.663 28.5624C102.604 28.6627 102.6 28.787 102.654 28.8917C102.709 28.9963 102.811 29.0639 102.929 29.0748L103.951 29.1555C104.193 29.2951 104.503 29.5654 104.666 30.1934L104.658 50.7752C104.44 51.5013 103.688 53.7101 102.41 54.8048C101.828 55.1427 101.198 55.2103 100.705 54.9836C99.3951 54.469 98.4751 52.5065 98.2768 50.9649V29.8685C98.207 28.1961 97.7819 24.1404 95.3229 22.6184C95.2422 22.5682 95.1441 22.5529 95.0525 22.5813C94.961 22.6075 94.8847 22.6707 94.8411 22.7557L94.1805 24.0662C92.9619 25.8848 92.0572 26.7809 90.1737 26.9554C88.7066 27.2061 88.6499 27.5877 88.6281 27.7316C88.6085 27.8603 88.6303 28.1045 88.9921 28.2877C89.5677 28.5842 90.1061 28.7194 90.5399 28.8284C91.3989 29.0443 91.6757 29.1446 91.7455 29.7966C91.8501 32.5985 91.8349 35.5531 91.8196 38.4096C91.7978 42.7313 91.7738 47.1992 92.1619 51.3552C92.5717 54.3905 94.3288 55.919 96.027 57.3996C97.2631 58.4767 98.4315 59.495 99.1335 61.0693C99.188 61.1915 99.3101 61.2699 99.4431 61.2699C99.4452 61.2699 99.4452 61.2699 99.4474 61.2699C99.5826 61.2678 99.7047 61.1871 99.757 61.0628C100.376 59.591 101.403 58.6468 102.486 57.6503C103.609 56.6168 104.764 55.5549 105.403 53.8824C106.018 56.0673 107.568 56.9526 109.079 57.8139C110.402 58.5683 111.653 59.2835 112.386 60.8426C112.445 60.9669 112.578 61.0454 112.713 61.0366C112.852 61.0279 112.97 60.9363 113.016 60.8055L113.511 59.3119C114.099 58.3415 115.067 57.6939 116.092 57.0071C117.775 55.8797 119.682 54.5998 119.732 51.6234C119.754 43.9459 119.739 35.7951 119.724 30.2894C120.024 29.4826 120.888 28.9462 121.603 28.7129C121.723 28.6736 121.81 28.5711 121.832 28.4468C121.853 28.3226 121.803 28.1983 121.703 28.1198C120.338 27.0644 119.196 25.0474 118.651 22.7252Z" fill="white"/>
<path id="Vector_73" d="M47.2384 40.8322C48.2456 40.261 49.2789 39.6591 50.0506 38.4686C51.86 36.4996 52.5227 33.2594 51.7793 30.0104C50.9291 26.2469 48.3306 24.5461 46.0394 23.0437C45.5227 22.7057 45.0148 22.3721 44.5396 22.0254C44.448 21.96 44.3325 21.9426 44.2256 21.9796C44.121 22.0167 44.0403 22.1061 44.012 22.2151C43.3624 24.7401 41.8211 26.0441 40.1905 27.4243C39.6912 27.8474 39.1789 28.2813 38.6993 28.7523C38.1216 26.4606 36.903 24.1383 35.6234 22.9434C35.5362 22.8627 35.4141 22.8344 35.2985 22.8649C35.183 22.8976 35.0958 22.9892 35.0653 23.1048C34.7448 24.3237 34.1955 25.3463 33.4935 26.4758C33.1033 26.9621 32.6586 27.2979 32.216 27.4614C31.9631 27.5116 31.61 27.5595 31.2416 27.6075C30.1712 27.7492 29.6393 27.8364 29.3929 28.024C29.1379 28.2137 29.1073 28.4383 29.1117 28.556C29.1204 28.8155 29.3014 29.0575 29.6807 29.2952C30.6791 29.7858 31.756 30.6253 32.1572 33.0958C32.5583 37.6531 32.4951 42.5178 32.434 47.2233C32.4144 48.6472 32.397 50.0361 32.3948 51.3423C32.3185 52.2712 31.8563 52.8228 31.32 53.4639C31.0911 53.7365 30.8557 54.0177 30.6442 54.3405C30.5767 54.4429 30.5701 54.5738 30.6268 54.6828C30.6835 54.7918 30.7947 54.8616 30.9167 54.866C32.6607 54.9161 33.8946 57.8293 34.7099 59.7568C34.8277 60.0381 34.941 60.2998 35.0435 60.5331C35.1002 60.6617 35.2179 60.7468 35.3683 60.7337C35.5078 60.7271 35.6299 60.6356 35.6735 60.5026C35.8893 59.8637 36.1575 59.4145 36.5673 59.0133C38.0955 58.346 39.4253 59.094 40.8292 59.8833C41.9475 60.5113 43.0986 61.1589 44.4197 61.1589C44.642 61.1589 44.8709 61.1393 45.1042 61.1C48.3633 60.5876 51.4371 57.6984 53.1309 53.5402C53.8787 51.3314 53.8852 48.5839 53.1527 46.3664C52.1696 43.3812 49.9961 41.373 47.2384 40.8322ZM44.5788 38.5863C43.6087 39.9491 42.5013 40.8737 41.3306 41.8527C40.5 42.5461 39.6476 43.2591 38.8432 44.1444L38.9457 32.1015C39.2095 30.3549 40.3714 29.003 41.3873 28.5647C43.079 27.9825 44.7619 28.9681 45.5707 30.9786C46.2247 33.4469 45.8214 36.5148 44.5788 38.5863ZM43.4038 43.0455C44.4502 43.0171 45.3527 43.4816 46.022 44.3625C47.8532 47.2843 47.6504 52.04 46.8525 55.5136C46.5146 56.92 45.3636 58.8214 44.4851 59.0612C42.7411 59.2793 41.0864 58.2087 39.955 56.183C39.1223 53.4443 37.993 48.3877 39.7654 45.263C40.6788 43.9307 42.0718 43.0803 43.4038 43.0455Z" fill="white"/>
<path id="Vector_74" d="M76.9996 60.1513C76.0055 60.607 75.0659 61.0388 74.1918 61.2808C73.7645 61.3266 73.3634 61.4771 72.9753 61.621C72.2952 61.8739 71.7044 62.0963 71.0744 61.7671L71.0547 61.7322C70.8738 61.4204 70.7626 61.2023 70.8716 61.0017C71.5888 59.5429 73.0887 59.2311 74.5406 58.9302L74.7215 58.8844C77.5206 58.9302 80.6751 58.6468 82.8267 56.1566C85.4972 54.216 85.41 50.6072 85.3316 47.4215C85.3163 46.7434 85.2989 46.074 85.3076 45.4329C85.3904 39.5957 81.9351 35.8562 79.0205 33.7454C78.9442 33.6909 78.8482 33.6691 78.7567 33.6866C78.6651 33.704 78.5845 33.7607 78.5343 33.8392C76.3347 37.3563 72.7987 39.6088 69.0753 39.8639C68.9816 39.8705 68.8944 39.9141 68.8355 39.9882C68.7766 40.0602 68.7505 40.1539 68.7614 40.2477C69.0055 42.088 68.8856 44.2053 68.7701 46.2506C68.5107 50.8427 68.2425 55.5853 71.9006 58.0013C70.6885 58.7798 69.3914 59.6934 68.8137 61.2219C68.2229 62.8093 68.5565 64.8721 69.6094 66.1302C70.6209 67.3404 71.9725 67.9292 73.5029 67.8463C75.4431 67.7525 77.1326 66.9174 78.7654 66.1084C80.5465 65.2275 82.2687 64.4011 84.235 64.4185C84.6122 64.6846 84.9457 65.0901 84.8476 65.3889C84.2612 66.7124 83.3739 66.7255 82.2469 66.743L81.8959 66.7495C81.7128 66.7539 81.5667 66.9043 81.5667 67.0875V67.2968C81.5667 67.4495 81.667 67.5846 81.8152 67.6261C82.3668 67.7809 83.1559 67.9357 83.8775 67.9357C83.9603 67.9357 84.041 67.9335 84.1217 67.9292C85.4994 67.589 86.1142 67.3012 86.6461 65.7901C87.3372 63.6314 86.4237 61.126 85.1201 59.7283C82.3755 57.683 79.6418 58.9389 76.9996 60.1513ZM77.0519 40.0384L77.0955 40.0754C79.2668 42.9646 79.16 47.1293 79.0553 51.1589C79.0379 51.8632 79.0183 52.5632 79.0139 53.2522V53.3918C79.003 54.8178 78.9943 56.2918 77.7626 56.8282C77.0912 57.0485 76.4851 56.6821 76.1799 56.3158C75.6567 55.6115 75.042 54.4711 75.0899 53.0232L75.0289 39.3995C75.1466 39.1683 75.2839 39.0375 75.4365 39.0092C75.914 38.9198 76.6835 39.6764 77.0519 40.0384Z" fill="white"/>
<path id="Vector_75" d="M179.578 35.9199C179.438 35.8283 179.253 35.8545 179.14 35.9787C176.554 38.8832 173.302 40.9089 169.739 41.8378C169.585 41.877 169.48 42.0209 169.487 42.1779C169.53 43.3794 169.515 44.6048 169.497 45.9022C169.465 48.436 169.432 51.0569 169.885 53.4795C170.795 56.6652 173.583 58.2068 176.044 59.5696C176.306 59.7135 176.565 59.8574 176.818 59.9992C176.868 60.0275 176.927 60.0428 176.984 60.0428C177.025 60.0428 177.066 60.0362 177.106 60.021C177.199 59.9839 177.273 59.9076 177.306 59.8116C177.949 57.8972 179.403 57.4371 180.942 56.9486C182.564 56.434 184.243 55.902 185.082 53.6561L185.276 52.4677C185.302 52.302 185.204 52.1428 185.045 52.0905C184.89 52.0403 184.714 52.1101 184.638 52.2606C183.787 53.9417 180.905 54.9709 180.081 55.2348C178.749 55.4921 177.494 54.7507 176.133 52.9518C175.654 52.1123 175.726 50.9501 175.793 49.8249C175.8 49.705 175.809 49.5873 175.815 49.4717L185.132 46.8943C185.268 46.8573 185.363 46.7417 185.379 46.6043C185.895 41.8203 182.721 37.9456 179.578 35.9199ZM175.811 47.5899L175.854 40.7083C177.773 41.7702 179.543 43.8765 179.569 46.5237C178.366 46.951 177.079 47.3152 175.811 47.5899Z" fill="white"/>
</g>
<g id="Group_17">
<g id="Group_18">
<path id="Vector_76" d="M149.572 23.2508C149.689 23.6607 149.513 24.0249 149.572 24.45C149.646 25.1653 149.674 25.8957 149.997 26.5106C150.099 26.6284 150.202 26.4954 150.319 26.4823C150.771 26.1181 151.27 25.7954 151.883 25.7213C151.97 25.7649 152.057 25.7649 152.101 25.8674C152.19 26.3645 151.721 26.6436 151.56 27.0797C151.063 28.0893 150.463 29.2297 150.858 30.4704C150.945 30.5729 151.106 30.647 151.239 30.5598C151.268 30.5293 151.283 30.4857 151.253 30.4573C151.167 30.3701 150.96 30.429 150.976 30.2393C150.976 30.1085 151.048 29.9754 151.15 29.9187C151.268 29.8468 151.442 29.8882 151.545 29.9471C151.75 30.0496 151.721 30.296 151.721 30.5162C151.693 30.6623 151.603 30.78 151.56 30.8956C151.721 30.9087 151.867 30.7648 151.954 30.6318C152.029 30.3963 152.057 30.1194 151.896 29.9449C151.867 29.7094 152.013 29.5502 152.116 29.3889C151.752 29.33 151.457 29.6091 151.167 29.7552C151.167 29.535 151.298 29.3605 151.414 29.1839C151.883 28.5865 152.569 28.074 153.21 27.6663C153.269 27.6794 153.387 27.6205 153.4 27.7252C153.446 28.0021 153.18 28.1613 153.223 28.4251L153.3 28.4535C154.191 27.8843 155.083 27.1822 156.221 27.2127C156.308 27.2258 156.395 27.2258 156.454 27.3283C156.513 27.6052 156.31 27.8102 156.147 27.9999C155.504 28.7173 154.788 29.2428 154.466 30.1041C154.437 30.2218 154.509 30.3374 154.612 30.381C154.655 30.381 154.699 30.3941 154.73 30.3527C154.699 30.2371 154.568 30.1782 154.64 30.0321C154.712 29.9427 154.873 29.8991 154.991 29.958C155.166 30.0169 155.194 30.2502 155.137 30.4115C155.05 30.5729 154.932 30.6732 154.771 30.7473L154.525 30.7626C154.54 30.8498 154.669 30.9087 154.73 30.9807C154.568 31.0548 154.305 31.0395 154.189 31.1573C154.86 31.2009 155.606 31.2881 156.059 31.8289C156.134 31.903 156.103 32.0491 156.029 32.0927C155.621 32.3565 155.109 32.3565 154.655 32.5026C153.853 32.7229 153.108 33.0739 152.508 33.6278C152.436 33.6845 152.452 33.8175 152.465 33.9047C152.508 33.9636 152.595 34.0094 152.67 33.9636C152.741 33.8458 152.567 33.6125 152.816 33.5536C153.018 33.4948 153.164 33.6409 153.238 33.8153C153.297 33.9461 153.223 34.0639 153.151 34.1358C152.946 34.2972 152.7 34.3713 152.436 34.3125C152.262 34.2252 152.144 34.0203 152.098 33.8437C151.983 33.9309 151.893 34.1075 151.819 34.2536C151.909 34.3713 151.981 34.4869 152.098 34.6025C152.216 34.851 152.347 35.2326 152.142 35.4943C152.011 35.6099 151.819 35.6993 151.647 35.6251C151.529 35.5663 151.412 35.4507 151.383 35.3177C151.399 35.1563 151.429 34.995 151.529 34.8794C151.383 34.6177 151.032 34.4564 150.769 34.2798C150.317 34.0464 149.82 33.9156 149.293 33.8415L149.28 33.8851C149.644 34.8358 149.628 36.1375 149.103 36.9988C148.898 37.1733 148.68 37.3652 148.357 37.3499C148.183 37.3216 147.95 37.2605 147.889 37.0403C147.876 36.8811 147.919 36.735 148.035 36.6609C148.27 36.4406 148.634 36.8353 148.78 36.4712C149.044 35.6535 148.985 34.6308 148.837 33.7826C148.619 33.7106 148.342 33.739 148.107 33.6518C148.153 33.5493 148.327 33.6082 148.414 33.5493C147.93 33.4446 147.246 33.5318 146.69 33.5776C145.547 33.7543 144.425 34.029 143.49 34.705C143.372 34.7922 143.357 34.923 143.241 34.9666C143.3 34.4411 143.577 34.0181 143.899 33.6234C144.03 33.4621 144.235 33.3596 144.281 33.1546C143.42 32.7883 142.628 32.1908 142.044 31.4168C141.972 31.3012 141.913 31.081 142.044 30.9763C142.526 30.6994 143.123 30.7299 143.694 30.6994C144.043 30.6841 144.453 30.671 144.617 30.9763C144.645 31.1529 144.632 31.3012 144.529 31.4168C144.412 31.504 144.25 31.5628 144.089 31.5476C144.148 31.6522 144.294 31.6653 144.409 31.637C144.586 31.5934 144.732 31.4756 144.806 31.3034C144.909 31.0831 144.822 30.8193 144.675 30.6732C144.486 30.514 144.25 30.4399 143.973 30.4835C144.12 30.3221 144.207 30.0452 144.135 29.7966C143.886 29.0814 143.258 28.4818 142.659 27.9999L142.644 28.0304C143.11 28.702 143.799 29.3169 143.871 30.2066C143.812 30.3527 143.753 30.514 143.607 30.586C143.387 30.6601 143.2 30.5271 143.097 30.3679C143.038 30.2371 143.008 30.0888 143.069 29.9449C143.125 29.8424 143.23 29.7966 143.343 29.8424C143.402 29.8708 143.492 29.958 143.461 30.0757C143.402 30.1041 143.402 30.1782 143.402 30.2218C143.431 30.2655 143.474 30.2371 143.503 30.2371C143.723 29.9297 143.374 29.6244 143.241 29.3889C142.774 28.7173 142.044 28.3662 141.634 27.6358C141.575 27.4744 141.65 27.3152 141.809 27.2847C142.759 27.1539 143.474 27.6946 144.205 28.1329H144.292C144.351 27.8276 143.987 27.6663 144.117 27.3588C144.263 27.2847 144.379 27.4744 144.527 27.5049C145.096 27.9149 145.755 28.3379 146.106 28.9811C146.193 29.0967 146.282 29.2733 146.398 29.3169C146.09 28.2507 145.944 27.023 146.223 25.8979C146.282 25.7823 146.385 25.6777 146.515 25.7235C146.969 25.8826 147.158 26.3514 147.507 26.5717C147.64 26.5281 147.61 26.3514 147.625 26.2359C147.756 24.9952 147.902 23.4165 149.277 23.0654C149.41 23.0763 149.541 23.1199 149.572 23.2508Z" fill="white"/>
<path id="Vector_77" d="M148.632 34.1467C148.675 34.3364 148.647 34.5719 148.529 34.7311C148.442 34.8488 148.324 34.8924 148.165 34.9055C148.032 34.8924 147.901 34.7899 147.858 34.6569C147.83 34.5261 147.96 34.452 147.917 34.3517C146.484 34.1598 145.024 34.4084 143.781 34.9055V34.8183C145.054 34.0311 146.572 33.6932 148.209 33.7826C148.383 33.8545 148.56 33.9417 148.632 34.1467Z" fill="white"/>
</g>
<g id="Group_19">
<path id="Vector_78" d="M148.296 33.7326C148.34 33.9245 148.311 34.1556 148.194 34.3191C148.104 34.4347 147.989 34.4783 147.827 34.4936C147.697 34.4783 147.564 34.378 147.52 34.245C147.492 34.1142 147.622 34.04 147.579 33.9375C146.147 33.7478 144.686 33.9964 143.443 34.4936V34.4064C144.714 33.617 146.236 33.2812 147.873 33.3684C148.05 33.4404 148.222 33.5276 148.296 33.7326Z" fill="#E13C2B"/>
<path id="Vector_79" d="M149.212 22.7995C149.33 23.2095 149.153 23.5758 149.212 23.9988C149.284 24.714 149.314 25.4445 149.635 26.0594C149.737 26.175 149.84 26.0441 149.955 26.0289C150.409 25.6647 150.908 25.3442 151.518 25.27C151.608 25.3115 151.693 25.3115 151.738 25.414C151.826 25.9111 151.359 26.188 151.198 26.6285C150.701 27.6359 150.101 28.7763 150.496 30.017C150.583 30.1195 150.744 30.1914 150.877 30.1064C150.908 30.0759 150.921 30.0323 150.89 30.0039C150.805 29.9145 150.598 29.9734 150.614 29.7815C150.614 29.6529 150.686 29.5198 150.79 29.4631C150.908 29.3868 151.08 29.4326 151.183 29.4915C151.387 29.594 151.359 29.8426 151.359 30.0606C151.329 30.2067 151.241 30.3244 151.198 30.44C151.359 30.4553 151.505 30.3114 151.592 30.1784C151.664 29.945 151.695 29.6659 151.534 29.4915C151.505 29.2582 151.651 29.099 151.752 28.9355C151.387 28.8766 151.095 29.1557 150.803 29.3018C150.803 29.0816 150.934 28.9071 151.052 28.7327C151.518 28.133 152.205 27.6228 152.848 27.2129C152.907 27.2281 153.022 27.1693 153.038 27.2717C153.081 27.5508 152.818 27.71 152.863 27.9739L152.937 28.0022C153.825 27.4331 154.719 26.7288 155.859 26.7593C155.946 26.7746 156.033 26.7746 156.092 26.8771C156.149 27.154 155.946 27.359 155.785 27.5487C155.139 28.2639 154.424 28.7916 154.104 29.6529C154.073 29.7684 154.147 29.884 154.248 29.9276C154.291 29.9276 154.335 29.9429 154.365 29.8992C154.333 29.7815 154.204 29.7248 154.276 29.5765C154.35 29.4893 154.511 29.4457 154.627 29.5046C154.804 29.5635 154.832 29.7968 154.771 29.9559C154.684 30.1173 154.566 30.2198 154.407 30.2917L154.158 30.307C154.174 30.3942 154.304 30.4531 154.363 30.5251C154.202 30.597 153.936 30.5839 153.82 30.7017C154.494 30.7431 155.24 30.8325 155.691 31.3733C155.765 31.4452 155.734 31.5913 155.662 31.6349C155.253 31.8988 154.742 31.8988 154.289 32.0449C153.485 32.2629 152.741 32.614 152.142 33.17C152.068 33.2289 152.083 33.3597 152.098 33.4469C152.142 33.5058 152.231 33.5516 152.303 33.5058C152.377 33.3881 152.201 33.1569 152.447 33.0959C152.652 33.037 152.798 33.1831 152.872 33.3597C152.931 33.4905 152.857 33.6083 152.78 33.6802C152.578 33.8416 152.329 33.9157 152.065 33.8569C151.889 33.7696 151.773 33.5647 151.73 33.3881C151.612 33.4753 151.525 33.6519 151.453 33.8002C151.538 33.9179 151.612 34.0335 151.73 34.149C151.845 34.3976 151.978 34.777 151.773 35.0409C151.643 35.1586 151.453 35.2458 151.276 35.1739C151.159 35.115 151.045 34.9994 151.015 34.8664C151.028 34.7051 151.058 34.5437 151.159 34.4282C151.015 34.1621 150.664 34.003 150.4 33.8285C149.946 33.5952 149.452 33.4644 148.926 33.3902L148.911 33.4338C149.275 34.3845 149.262 35.6841 148.734 36.5454C148.532 36.722 148.311 36.9139 147.991 36.8965C147.814 36.8681 147.581 36.8114 147.522 36.5912C147.507 36.4299 147.551 36.2838 147.668 36.2118C147.904 35.9894 148.268 36.3841 148.414 36.0199C148.678 35.2022 148.619 34.1796 148.473 33.3292C148.253 33.2572 147.976 33.2856 147.743 33.2005C147.786 33.098 147.961 33.1569 148.05 33.098C147.566 32.9956 146.881 33.0828 146.326 33.1264C145.188 33.303 144.063 33.5799 143.127 34.2515C143.012 34.3388 142.994 34.4696 142.879 34.5132C142.938 33.9877 143.217 33.5647 143.535 33.17C143.668 33.0086 143.873 32.9062 143.917 32.7012C143.053 32.3349 142.264 31.7352 141.68 30.9612C141.606 30.8456 141.549 30.6254 141.68 30.5229C142.162 30.2459 142.761 30.2721 143.33 30.246C143.681 30.2307 144.091 30.2176 144.25 30.5229C144.278 30.6995 144.265 30.8456 144.163 30.9612C144.045 31.0506 143.884 31.1072 143.725 31.0942C143.784 31.1966 143.928 31.2119 144.045 31.1814C144.217 31.1356 144.366 31.0222 144.44 30.8456C144.542 30.6254 144.453 30.3637 144.309 30.2176C144.119 30.0562 143.884 29.9821 143.607 30.0257C143.753 29.8644 143.84 29.5874 143.766 29.3389C143.52 28.6215 142.89 28.024 142.293 27.5421L142.279 27.5705C142.746 28.2421 143.433 28.8548 143.507 29.7488C143.448 29.8949 143.389 30.0541 143.243 30.1282C143.023 30.2002 142.835 30.0693 142.731 29.9102C142.676 29.7771 142.646 29.631 142.702 29.485C142.761 29.3825 142.864 29.3389 142.979 29.3825C143.038 29.413 143.125 29.5024 143.097 29.618C143.038 29.6463 143.038 29.7204 143.038 29.7619C143.066 29.8077 143.112 29.775 143.141 29.775C143.361 29.4697 143.01 29.1622 142.877 28.9289C142.408 28.2573 141.68 27.9063 141.27 27.1758C141.211 27.0144 141.285 26.8553 141.444 26.8247C142.395 26.6939 143.11 27.2347 143.84 27.673H143.928C143.986 27.3655 143.62 27.2063 143.753 26.8989C143.901 26.8247 144.017 27.0144 144.163 27.045C144.732 27.4549 145.39 27.8801 145.739 28.5234C145.826 28.6389 145.916 28.8155 146.033 28.8592C145.726 27.7929 145.58 26.5653 145.857 25.4401C145.916 25.3246 146.018 25.2199 146.149 25.2657C146.602 25.4249 146.792 25.8937 147.143 26.1117C147.274 26.0703 147.245 25.8937 147.259 25.7759C147.392 24.533 147.535 22.9565 148.909 22.6055C149.051 22.6251 149.181 22.6687 149.212 22.7995Z" fill="#E13C2B"/>
</g>
<path id="Vector_80" d="M148.593 24.0923C147.993 24.8664 147.993 25.9327 147.832 26.9139C147.804 27.0295 147.64 27.0447 147.54 27.0011C147.217 26.9139 147.058 26.5934 146.707 26.5629C146.546 26.6959 146.574 26.9139 146.518 27.1058C146.459 27.749 146.415 28.5362 146.561 29.1358L146.518 29.1773C146.136 28.534 146.254 27.6008 146.284 26.8245C146.341 26.637 146.297 26.3426 146.518 26.2707C146.851 26.3884 147.1 26.7809 147.509 26.722C147.714 26.504 147.671 26.1529 147.686 25.8476C147.847 25.0583 147.876 24.1512 148.532 23.6235C148.68 23.7129 148.593 23.9462 148.593 24.0923Z" fill="white"/>
</g>
<g id="Group_20">
<path id="Vector_81" d="M195.323 37.1579H196.051V40.8975H195.635V37.8165C195.635 37.6573 195.646 37.5025 195.635 37.3433H195.626C195.58 37.5635 195.545 37.7031 195.511 37.847L194.728 40.8975H194.237L193.455 37.8012C193.42 37.6725 193.389 37.5461 193.346 37.3411H193.335C193.335 37.5003 193.346 37.666 193.346 37.8252V40.8953H192.932V37.1558H193.664L194.397 40.0733C194.436 40.2325 194.458 40.3894 194.477 40.6271H194.488C194.512 40.4374 194.536 40.2521 194.582 40.0689L195.323 37.1579Z" fill="black"/>
<path id="Vector_82" d="M190.133 37.1577H192.481V37.5306H191.513V40.8951H191.099V37.5306H190.133V37.1577Z" fill="black"/>
</g>
</g>
</g>
<defs>
<linearGradient id="paint0_linear_362_1504" x1="109.001" y1="92.8538" x2="109.001" y2="11.7378" gradientUnits="userSpaceOnUse">
<stop stop-color="#A8BADD"/>
<stop offset="1" stop-color="#0061A9"/>
</linearGradient>
</defs>
</svg>
