<?xml version="1.0" encoding="UTF-8"?>
<svg id="Layer_1" xmlns="http://www.w3.org/2000/svg" version="1.1" viewBox="0 0 293.67 102.63">
  <!-- Generator: Adobe Illustrator 29.8.4, SVG Export Plug-In . SVG Version: 2.1.1 Build 6)  -->
  <defs>
    <style>
      .st0 {
        fill: #fff;
      }

      .st0, .st1, .st2 {
        fill-rule: evenodd;
      }

      .st1 {
        fill: #0054a4;
      }

      .st2 {
        fill: #fff200;
        stroke: #0355a3;
        stroke-miterlimit: 10;
        stroke-width: .56px;
      }
    </style>
  </defs>
  <path class="st1" d="M30.67,60.36c.66-.49,1.55-.74,2.66-.74,1.82,0,3.36.5,4.63,1.49,1.27.99,2.13,2.37,2.58,4.14h8.52l1.96-11.38h-8.4l-.44,2.78c-1.27-1.19-2.73-2.08-4.38-2.65-1.65-.57-3.55-.86-5.71-.86-3.78,0-6.83.93-9.16,2.8-2.33,1.87-3.49,4.28-3.49,7.25,0,2.44.69,4.5,2.08,6.17,1.38,1.67,3.64,3.14,6.76,4.4.73.29,1.72.69,2.99,1.18,4.7,1.8,7.05,3.58,7.05,5.33,0,.87-.38,1.61-1.12,2.21-.75.61-1.71.91-2.89.91-1.72,0-3.22-.54-4.5-1.62s-2.12-2.51-2.52-4.28h-8.59l-2.17,12.63h8.25l.48-2.73c1.59,1.21,3.19,2.1,4.79,2.65,1.6.56,3.35.83,5.25.83,3.76,0,6.89-1.15,9.38-3.46,2.48-2.31,3.73-5.17,3.73-8.58,0-2.61-.9-4.82-2.69-6.66-1.79-1.84-4.92-3.62-9.38-5.36-.48-.2-1.17-.45-2.05-.76-3.07-1.11-4.61-2.38-4.61-3.79,0-.78.33-1.42.99-1.92ZM87.4,60.98l1.23-7.1h-16.2l-1.25,7.1h3.38l-2.39,13.64c-.4,2.39-1.14,4.22-2.22,5.49-1.08,1.27-2.41,1.9-4.01,1.9-1.45,0-2.58-.4-3.4-1.21-.82-.81-1.23-1.95-1.23-3.4,0-.39.04-.94.12-1.65.08-.7.19-1.46.31-2.28l2.17-12.48h3.28l1.23-7.1h-16.17l-1.23,7.1h3.55l-2.46,14.35c-.19,1.03-.33,1.96-.42,2.79-.09.83-.13,1.59-.13,2.3,0,3.11,1.18,5.63,3.54,7.54,2.36,1.92,5.48,2.88,9.38,2.88,5.15,0,8.97-1.09,11.45-3.28,2.48-2.19,4.22-5.99,5.2-11.41l2.73-15.16h3.55ZM184.59,83.02l3.81-22.04h3.59l1.26-7.1h-16.22l-1.28,7.1h3.35l-1.13,6.71h-10.69l1.16-6.71h3.35l1.23-7.1h-16.22l-1.23,7.1h3.55l-3.79,22.04h-3.28c.48-1.29.72-2.68.72-4.18,0-2.61-.9-4.82-2.69-6.66-1.79-1.84-4.92-3.62-9.38-5.36-.48-.2-1.17-.45-2.05-.76-3.07-1.11-4.61-2.38-4.61-3.79,0-.78.33-1.42.99-1.92.66-.49,1.55-.74,2.66-.74,1.82,0,3.36.5,4.63,1.49,1.27.99,2.13,2.37,2.58,4.14h8.52l1.96-11.38h-8.4l-.44,2.78c-1.27-1.19-2.73-2.08-4.38-2.65-1.65-.57-3.55-.86-5.71-.86-3.78,0-6.83.93-9.16,2.8-.85.68-1.54,1.44-2.08,2.26l.72-4.33h-15.62l-1.23,7.1h3.11l-2.17,14.06-7.77-21.16h-12.31l-1.23,7.1h3.55l-3.79,22.04h-3.57l-1.23,7.1h15.67l1.26-7.1h-3.11l2.46-15.95,8.45,23.05h7.77l5.05-29.14h2.84c-.16.7-.24,1.44-.24,2.21,0,2.44.69,4.5,2.08,6.17,1.38,1.67,3.64,3.14,6.76,4.4.73.29,1.72.69,2.99,1.18,4.7,1.8,7.05,3.58,7.05,5.33,0,.87-.38,1.61-1.12,2.21-.75.61-1.71.91-2.89.91-1.72,0-3.22-.54-4.5-1.62s-2.12-2.51-2.52-4.28h-8.59l-2.17,12.63h8.25l.48-2.73c1.59,1.21,3.19,2.1,4.79,2.65,1.6.56,3.35.83,5.25.83,3.76,0,6.89-1.15,9.38-3.46,1.07-1,1.92-2.1,2.53-3.31l-1.04,6.01h16.22l1.23-7.1h-3.35l1.42-8.21h10.64l-1.4,8.21h-3.31l-1.23,7.1h16.15l1.26-7.1h-3.57ZM202.21,83.02l3.81-22.04h3.35l1.23-7.1h-16.22l-1.23,7.1h3.55l-3.79,22.04h-3.57l-1.23,7.1h16.22l1.23-7.1h-3.35ZM246.62,60.98l1.18-7.1h-15.62l-1.23,7.1h3.11l-2.17,14.06-7.77-21.16h-12.31l-1.23,7.1h3.55l-3.79,22.04h-3.57l-1.23,7.1h15.67l1.26-7.1h-3.11l2.46-15.95,8.45,23.05h7.77l5.05-29.14h3.55ZM269.63,60.98l.55,6.39h6.61l1.84-13.49h-29.66l-1.23,7.1h3.4l-3.59,22.04h-3.62l-1.23,7.1h30.39l3.11-14.35h-6.61l-2.73,7.25h-9.82l1.38-7.94h6.47l1.3-7.2h-6.54l1.18-6.9h8.81ZM87.95,41.77l-1.33,7.1h-15.91l1.13-7.1h4.25l-.56-5.14h-8.88l-2.17,5.14h3.35l-1.28,7.1h-16.27l.89-5.11c-.52.94-1.2,1.77-2.07,2.48-2.14,1.75-5.14,2.63-9,2.63h-20.61l1.23-7.1h3.57l3.79-22.04h-3.55l1.23-7.1h15.79c4.13,0,7.3.79,9.5,2.37s3.3,3.86,3.3,6.84c0,2.46-.77,4.44-2.29,5.94-1.53,1.5-3.83,2.54-6.9,3.13,2.44.87,4.25,1.95,5.42,3.26,1.17,1.3,1.75,2.88,1.75,4.73,0,1.03-.12,1.99-.35,2.87h3.1l9.99-22.04h-3.6l1.18-7.1h24.43l-1.16,7.1h-3.64l3.02,22.04h2.66ZM42.52,37.15c0-1.33-.42-2.35-1.27-3.06-.84-.71-2.05-1.07-3.61-1.07h-2.48l-1.52,8.75h2.82c2.06,0,3.58-.38,4.57-1.13.99-.75,1.48-1.92,1.48-3.49ZM44.16,22.9c0-1.08-.35-1.88-1.06-2.4-.71-.52-1.8-.77-3.28-.77h-2.37l-1.3,7.44h2.22c1.99,0,3.46-.34,4.39-1.03.93-.69,1.4-1.77,1.4-3.24ZM74.96,30.45l-1.18-11.3-4.66,11.3h5.84ZM129.03,19.73l1.18-7.1h-15.62l-1.23,7.1h3.11l-2.17,14.06-7.77-21.16h-12.31l-1.23,7.1h3.55l-3.79,22.04h-3.57l-1.23,7.1h15.67l1.26-7.1h-3.11l2.46-15.95,8.45,23.05h7.77l5.05-29.14h3.55ZM159.65,12.63h-28.22l-1.26,7.1h3.43l-3.62,22.04h-3.6l-1.26,7.1h16.82l1.23-7.1h-3.72l1.35-7.94h6.08l1.23-7.2h-6.03l1.18-6.9h7.51l.6,6.39h6.66l1.59-13.49ZM160.99,12.63l-1.26,7.1h3.43l-3.62,22.04h-3.6l-1.26,7.1h16.82l1.23-7.1h-3.72l1.35-7.94h6.08l1.23-7.2h-6.03l1.18-6.9h7.51l.6,6.39h6.66l1.59-13.49h-28.22Z"/>
  <g>
    <path class="st0" d="M269.39,32.2c-5.4-8.7-13.89-15.86-23.22-19.08-17.47-6.24-37.46-2.11-50.31,10.81-6.31,7.29-11.15,15.08-12.14,24.77h91.92c-1.34-5.82-3.09-11.44-6.25-16.49Z"/>
    <path class="st1" d="M227.16,34.02c-1.48-1.2-2.39-3.02-3.86-3.72-3.01,1.75-5.68,4.21-8.77,5.75l-.14-.22c1.05-2.52,3.16-5.05,3.86-7.36-10.18,6.67-20.07,13.54-29.96,20.21h58.93l-17.04-18.17c-1.34.7-2.04,2.31-3.02,3.51Z"/>
    <path class="st2" d="M269.39,32.2c-5.4-8.7-13.89-15.86-23.22-19.08-17.47-6.24-37.46-2.11-50.31,10.81-6.31,7.29-11.15,15.08-12.14,24.77h1.33l32.49-21.89,7.08-4.42,6.6,6.25c4.84-2.67,9.26-6.25,14.31-8.56l28.42,28.63h1.69c-1.34-5.82-3.09-11.44-6.25-16.49Z"/>
    <path class="st1" d="M269.72,47.13c-.24-.24-.49-.49-.73-.73-.2-.2-.4-.4-.6-.6-4.67-4.7-9.3-9.48-13.89-14.1-1.04-1.03-2.12-2.1-3.28-3.22-1.08-1.05,1.59,6.64,1.59,6.64l-8.2-6.63-4.67,2.51c-.71-1.26-.64-2.95-1.33-4.07l-5.54,3.86,17.03,17.89h21.19c-.54-.53-1.05-1.05-1.56-1.56Z"/>
  </g>
</svg>